<?xml version="1.0" encoding="UTF-8" standalone="no"?>
<!-- Created with Inkscape (http://www.inkscape.org/) -->

<svg
   xmlns:dc="http://purl.org/dc/elements/1.1/"
   xmlns:cc="http://creativecommons.org/ns#"
   xmlns:rdf="http://www.w3.org/1999/02/22-rdf-syntax-ns#"
   xmlns:svg="http://www.w3.org/2000/svg"
   xmlns="http://www.w3.org/2000/svg"
   xmlns:sodipodi="http://sodipodi.sourceforge.net/DTD/sodipodi-0.dtd"
   xmlns:inkscape="http://www.inkscape.org/namespaces/inkscape"
   width="278mm"
   height="48mm"
   viewBox="0 0 278 48"
   version="1.1"
   id="svg8"
   inkscape:version="0.92.3 (2405546, 2018-03-11)"
   sodipodi:docname="isotropic_gaussian_PSD.svg"
   inkscape:export-filename="/home/mafontai/Documents/Redactions_biblio/Présentation/soutenance/figures/isotropic_gaussian_PSD.png"
   inkscape:export-xdpi="347"
   inkscape:export-ydpi="347">
  <sodipodi:namedview
     id="base"
     pagecolor="#ffffff"
     bordercolor="#666666"
     borderopacity="1.0"
     inkscape:pageopacity="0.0"
     inkscape:pageshadow="2"
     inkscape:zoom="0.77665421"
     inkscape:cx="424.76214"
     inkscape:cy="198.25442"
     inkscape:document-units="mm"
     inkscape:current-layer="layer1"
     showgrid="false"
     inkscape:window-width="1853"
     inkscape:window-height="1052"
     inkscape:window-x="1091"
     inkscape:window-y="0"
     inkscape:window-maximized="1"
     inkscape:snap-nodes="false" />
  <defs
     id="defs2">
    <marker
       inkscape:isstock="true"
       style="overflow:visible"
       id="marker1428"
       refX="0"
       refY="0"
       orient="auto"
       inkscape:stockid="Arrow1Lstart">
      <path
         transform="matrix(0.8,0,0,0.8,10,0)"
         style="fill:#000000;fill-opacity:1;fill-rule:evenodd;stroke:#000000;stroke-width:1.00000003pt;stroke-opacity:1"
         d="M 0,0 5,-5 -12.5,0 5,5 Z"
         id="path1426"
         inkscape:connector-curvature="0" />
    </marker>
    <marker
       inkscape:stockid="Arrow2Lend"
       orient="auto"
       refY="0"
       refX="0"
       id="marker1394"
       style="overflow:visible"
       inkscape:isstock="true">
      <path
         id="path1392"
         style="fill:#000000;fill-opacity:1;fill-rule:evenodd;stroke:#000000;stroke-width:0.625;stroke-linejoin:round;stroke-opacity:1"
         d="M 8.7185878,4.0337352 -2.2072895,0.01601326 8.7185884,-4.0017078 c -1.7454984,2.3720609 -1.7354408,5.6174519 -6e-7,8.035443 z"
         transform="matrix(-1.1,0,0,-1.1,-1.1,0)"
         inkscape:connector-curvature="0" />
    </marker>
    <marker
       inkscape:stockid="Arrow1Lstart"
       orient="auto"
       refY="0"
       refX="0"
       id="Arrow1Lstart"
       style="overflow:visible"
       inkscape:isstock="true"
       inkscape:collect="always">
      <path
         id="path1046"
         d="M 0,0 5,-5 -12.5,0 5,5 Z"
         style="fill:#000000;fill-opacity:1;fill-rule:evenodd;stroke:#000000;stroke-width:1.00000003pt;stroke-opacity:1"
         transform="matrix(0.8,0,0,0.8,10,0)"
         inkscape:connector-curvature="0" />
    </marker>
    <marker
       inkscape:stockid="TriangleInL"
       orient="auto"
       refY="0"
       refX="0"
       id="TriangleInL"
       style="overflow:visible"
       inkscape:isstock="true">
      <path
         id="path1179"
         d="M 5.77,0 -2.88,5 V -5 Z"
         style="fill:#000000;fill-opacity:1;fill-rule:evenodd;stroke:#000000;stroke-width:1.00000003pt;stroke-opacity:1"
         transform="scale(-0.8)"
         inkscape:connector-curvature="0" />
    </marker>
    <marker
       inkscape:stockid="Arrow2Lend"
       orient="auto"
       refY="0"
       refX="0"
       id="marker1338"
       style="overflow:visible"
       inkscape:isstock="true">
      <path
         id="path1336"
         style="fill:#000000;fill-opacity:1;fill-rule:evenodd;stroke:#000000;stroke-width:0.625;stroke-linejoin:round;stroke-opacity:1"
         d="M 8.7185878,4.0337352 -2.2072895,0.01601326 8.7185884,-4.0017078 c -1.7454984,2.3720609 -1.7354408,5.6174519 -6e-7,8.035443 z"
         transform="matrix(-1.1,0,0,-1.1,-1.1,0)"
         inkscape:connector-curvature="0" />
    </marker>
    <marker
       inkscape:stockid="Arrow1Lend"
       orient="auto"
       refY="0"
       refX="0"
       id="Arrow1Lend"
       style="overflow:visible"
       inkscape:isstock="true">
      <path
         id="path1049"
         d="M 0,0 5,-5 -12.5,0 5,5 Z"
         style="fill:#000000;fill-opacity:1;fill-rule:evenodd;stroke:#000000;stroke-width:1.00000003pt;stroke-opacity:1"
         transform="matrix(-0.8,0,0,-0.8,-10,0)"
         inkscape:connector-curvature="0" />
    </marker>
    <marker
       inkscape:stockid="Arrow2Lend"
       orient="auto"
       refY="0"
       refX="0"
       id="Arrow2Lend"
       style="overflow:visible"
       inkscape:isstock="true">
      <path
         id="path1067"
         style="fill:#000000;fill-opacity:1;fill-rule:evenodd;stroke:#000000;stroke-width:0.625;stroke-linejoin:round;stroke-opacity:1"
         d="M 8.7185878,4.0337352 -2.2072895,0.01601326 8.7185884,-4.0017078 c -1.7454984,2.3720609 -1.7354408,5.6174519 -6e-7,8.035443 z"
         transform="matrix(-1.1,0,0,-1.1,-1.1,0)"
         inkscape:connector-curvature="0" />
    </marker>
  </defs>
  <metadata
     id="metadata5">
    <rdf:RDF>
      <cc:Work
         rdf:about="">
        <dc:format>image/svg+xml</dc:format>
        <dc:type
           rdf:resource="http://purl.org/dc/dcmitype/StillImage" />
        <dc:title></dc:title>
      </cc:Work>
    </rdf:RDF>
  </metadata>
  <g
     id="layer1"
     inkscape:groupmode="layer"
     inkscape:label="Layer 1"
     transform="translate(0,-249)">
    <g
       id="g987"
       transform="matrix(0.66670717,0,0,0.66670717,-50.643237,191.878)">
      <g
         word-spacing="normal"
         letter-spacing="normal"
         font-size-adjust="none"
         font-stretch="normal"
         font-weight="normal"
         font-variant="normal"
         font-style="normal"
         stroke-miterlimit="10.433"
         xml:space="preserve"
         transform="matrix(0.3,0,0,-0.3,-52.5,222.75)"
         id="content"
         style="font-style:normal;font-variant:normal;font-weight:normal;font-stretch:normal;letter-spacing:normal;word-spacing:normal;text-anchor:start;fill:none;fill-opacity:1;fill-rule:evenodd;stroke:#000000;stroke-linecap:butt;stroke-linejoin:miter;stroke-miterlimit:10.43299961;stroke-dasharray:none;stroke-dashoffset:0;stroke-opacity:1"><path
           id="path928"
           d="m 482.97,438.89 0.01,0.02 0.02,0.03 0.01,0.02 0.01,0.02 0.01,0.03 0.01,0.02 0.02,0.04 0.01,0.04 0.02,0.04 0.01,0.04 0.02,0.03 0.01,0.03 0.01,0.04 0.01,0.02 0.01,0.03 0.01,0.03 0.01,0.03 0.01,0.02 v 0.02 l 0.01,0.03 v 0.02 l 0.01,0.02 v 0.02 l 0.01,0.04 v 0.04 0.04 0.04 0.02 0.02 0.02 0.03 c 0,0.5 -0.4,1 -1,1 -0.64,0 -0.95,-0.6 -1.14,-1.14 l -4.14,-10.97 -0.8,-1.99 -6.78,-17.75 -6.76,17.75 h 13.54 l 0.8,1.99 H 461.8 l -4.14,10.97 c -0.25,0.68 -0.5,1.14 -1.14,1.14 -0.5,0 -1,-0.5 -1,-1 0,-0.1 0,-0.21 0.3,-0.89 l 12.4,-32.64 c 0.25,-0.69 0.5,-1.14 1.14,-1.14 0.71,0 0.91,0.54 1.11,1.04 z"
           inkscape:connector-curvature="0"
           style="fill:#000000;stroke-width:0" /><path
           id="path930"
           d="m 501.52,426.12 h 4.28 c 1,0 1.5,0 1.5,1 0,0.55 -0.5,0.55 -1.34,0.55 h -4.14 l 1.04,5.69 c 0.21,1.04 0.91,4.57 1.21,5.17 0.45,0.95 1.29,1.7 2.34,1.7 0.19,0 1.48,0 2.44,-0.91 -2.19,-0.18 -2.69,-1.93 -2.69,-2.68 0,-1.14 0.89,-1.74 1.84,-1.74 1.3,0 2.74,1.1 2.74,2.99 0,2.29 -2.3,3.43 -4.33,3.43 -1.7,0 -4.84,-0.89 -6.33,-5.82 -0.29,-1.05 -0.45,-1.55 -1.64,-7.83 H 495 c -0.95,0 -1.5,0 -1.5,-0.94 0,-0.61 0.46,-0.61 1.39,-0.61 h 3.3 l -3.75,-19.67 c -0.89,-4.83 -1.73,-9.38 -4.33,-9.38 -0.2,0 -1.43,0 -2.39,0.91 2.3,0.14 2.74,1.94 2.74,2.69 0,1.14 -0.89,1.75 -1.85,1.75 -1.29,0 -2.73,-1.1 -2.73,-3 0,-2.24 2.19,-3.44 4.23,-3.44 2.74,0 4.74,2.94 5.63,4.84 1.59,3.14 2.75,9.16 2.8,9.52 z"
           inkscape:connector-curvature="0"
           style="fill:#000000;stroke-width:0" /><path
           id="path932"
           d="m 554.09,417.65 h 0.17 0.16 l 0.15,0.01 h 0.08 l 0.08,0.01 h 0.08 l 0.07,0.01 0.07,0.01 0.08,0.01 0.06,0.02 0.07,0.02 0.07,0.02 0.06,0.02 0.06,0.02 0.06,0.03 0.05,0.03 0.06,0.04 0.05,0.03 0.04,0.05 0.04,0.04 0.04,0.05 0.02,0.03 0.02,0.03 0.01,0.03 0.02,0.03 0.01,0.03 0.01,0.03 0.01,0.04 0.01,0.03 0.01,0.04 0.01,0.04 0.01,0.04 v 0.04 l 0.01,0.04 v 0.04 0.05 0.04 c 0,1 -0.89,1 -1.75,1 h -21.12 c 0.61,6.67 6.33,11.46 13.36,11.46 h 7.76 c 0.86,0 1.75,0 1.75,1 0,1 -0.89,1 -1.75,1 h -7.86 c -8.53,0 -15.29,-6.49 -15.29,-14.46 0,-7.97 6.76,-14.45 15.29,-14.45 h 7.86 c 0.86,0 1.75,0 1.75,1 0,1 -0.89,1 -1.75,1 h -7.76 c -7.03,0 -12.75,4.78 -13.36,11.45 z"
           inkscape:connector-curvature="0"
           style="fill:#000000;stroke-width:0" /><path
           id="path934"
           d="m 587.93,436.93 v 0.19 l 0.02,0.2 0.02,0.2 0.03,0.21 0.04,0.21 0.05,0.22 0.06,0.21 0.07,0.22 0.08,0.22 0.1,0.22 0.11,0.22 0.12,0.22 0.13,0.22 0.15,0.21 0.17,0.21 0.18,0.21 0.19,0.2 0.22,0.2 0.23,0.19 0.24,0.18 0.27,0.18 0.28,0.16 0.31,0.16 0.32,0.15 0.34,0.13 0.36,0.13 0.39,0.11 0.4,0.1 0.21,0.05 0.22,0.04 0.22,0.03 0.23,0.04 0.24,0.03 0.24,0.02 0.24,0.03 0.25,0.01 c 0.25,0.05 0.46,0.25 0.46,0.55 0,0.55 -0.41,0.55 -0.96,0.55 -4.98,0 -9.51,-2.53 -9.56,-6.22 v -11.36 c 0,-1.94 0,-3.55 -2,-5.19 -1.73,-1.43 -3.64,-1.54 -4.73,-1.59 -0.25,-0.05 -0.44,-0.25 -0.44,-0.55 0,-0.5 0.3,-0.5 0.8,-0.54 3.28,-0.21 5.67,-1.99 6.22,-4.44 0.15,-0.55 0.15,-0.64 0.15,-2.44 v -9.86 c 0,-2.09 0,-3.69 2.39,-5.58 1.94,-1.5 5.24,-2.04 7.17,-2.04 0.55,0 0.96,0 0.96,0.54 0,0.5 -0.32,0.5 -0.8,0.55 -3.14,0.2 -5.59,1.8 -6.23,4.33 -0.16,0.45 -0.16,0.54 -0.16,2.34 v 10.47 c 0,2.3 -0.39,3.14 -1.98,4.73 -1.05,1.05 -2.5,1.55 -3.9,1.94 4.1,1.14 5.88,3.44 5.88,6.33 z"
           inkscape:connector-curvature="0"
           style="fill:#000000;stroke-width:0" /><path
           id="path936"
           d="m 613.43,438.09 v 0.05 0.06 0.05 0.05 0.05 0.05 0.04 0.05 0.04 0.04 0.04 0.04 l -0.01,0.04 v 0.03 0.04 0.03 l -0.01,0.07 -0.01,0.06 -0.01,0.05 -0.02,0.05 -0.01,0.05 -0.02,0.04 -0.02,0.04 -0.03,0.03 -0.03,0.03 -0.03,0.03 -0.03,0.03 -0.04,0.02 -0.05,0.02 -0.02,0.01 -0.03,0.01 h -0.02 l -0.03,0.01 -0.03,0.01 h -0.03 l -0.03,0.01 h -0.03 l -0.03,0.01 h -0.04 -0.03 l -0.04,0.01 h -0.04 -0.04 -0.04 -0.05 -0.04 l -0.05,0.01 h -0.04 -0.05 -0.05 -0.06 c -3.09,-3.19 -7.47,-3.19 -9.06,-3.19 v -1.55 c 1,0 3.94,0 6.52,1.3 v -25.81 c 0,-1.8 -0.15,-2.39 -4.63,-2.39 h -1.59 v -1.55 c 1.75,0.16 6.07,0.16 8.06,0.16 2,0 6.33,0 8.08,-0.16 v 1.55 h -1.6 c -4.48,0 -4.64,0.54 -4.64,2.39 z"
           inkscape:connector-curvature="0"
           style="fill:#000000;stroke-width:0" /><path
           id="path938"
           d="m 633.86,406.25 v 0.3 l -0.02,0.3 -0.01,0.29 -0.03,0.28 -0.03,0.27 -0.04,0.26 -0.04,0.26 -0.05,0.24 -0.06,0.24 -0.07,0.23 -0.07,0.22 -0.07,0.21 -0.09,0.2 -0.09,0.19 -0.09,0.19 -0.1,0.17 -0.11,0.16 -0.11,0.16 -0.12,0.14 -0.12,0.13 -0.13,0.13 -0.13,0.11 -0.14,0.1 -0.15,0.1 -0.14,0.08 -0.16,0.07 -0.16,0.06 -0.16,0.05 -0.17,0.04 -0.17,0.03 -0.18,0.01 -0.18,0.01 c -1.64,0 -2.64,-1.25 -2.64,-2.64 0,-1.34 1,-2.64 2.64,-2.64 0.6,0 1.25,0.2 1.75,0.64 0.14,0.11 0.2,0.16 0.25,0.16 0.05,0 0.1,-0.05 0.1,-0.75 0,-3.69 -1.74,-6.68 -3.39,-8.32 -0.55,-0.54 -0.55,-0.65 -0.55,-0.79 0,-0.36 0.25,-0.55 0.5,-0.55 0.55,0 4.53,3.83 4.53,9.66 z"
           inkscape:connector-curvature="0"
           style="fill:#000000;stroke-width:0" /><path
           id="path940"
           d="m 655.39,408.84 v 0.13 l -0.01,0.14 -0.02,0.13 -0.02,0.13 -0.03,0.12 -0.04,0.13 -0.04,0.12 -0.05,0.12 -0.05,0.12 -0.06,0.11 -0.06,0.11 -0.07,0.11 -0.08,0.1 -0.07,0.1 -0.09,0.1 -0.08,0.09 -0.1,0.09 -0.09,0.08 -0.1,0.08 -0.11,0.07 -0.1,0.07 -0.11,0.07 -0.12,0.06 -0.11,0.05 -0.12,0.05 -0.13,0.04 -0.12,0.04 -0.13,0.03 -0.13,0.02 -0.13,0.02 -0.13,0.01 h -0.14 c -1.44,0 -2.64,-1.2 -2.64,-2.64 0,-1.44 1.2,-2.64 2.64,-2.64 1.45,0 2.64,1.2 2.64,2.64 z"
           inkscape:connector-curvature="0"
           style="fill:#000000;stroke-width:0" /><path
           id="path942"
           d="m 677.47,408.84 -0.01,0.13 -0.01,0.14 -0.02,0.13 -0.02,0.13 -0.03,0.12 -0.03,0.13 -0.05,0.12 -0.04,0.12 -0.06,0.12 -0.05,0.11 -0.07,0.11 -0.07,0.11 -0.07,0.1 -0.08,0.1 -0.08,0.1 -0.09,0.09 -0.09,0.09 -0.1,0.08 -0.1,0.08 -0.1,0.07 -0.11,0.07 -0.11,0.07 -0.11,0.06 -0.12,0.05 -0.12,0.05 -0.12,0.04 -0.13,0.04 -0.13,0.03 -0.13,0.02 -0.13,0.02 -0.13,0.01 h -0.14 c -1.43,0 -2.64,-1.2 -2.64,-2.64 0,-1.44 1.21,-2.64 2.64,-2.64 1.46,0 2.65,1.2 2.65,2.64 z"
           inkscape:connector-curvature="0"
           style="fill:#000000;stroke-width:0" /><path
           id="path944"
           d="m 699.54,408.84 v 0.13 l -0.01,0.14 -0.02,0.13 -0.02,0.13 -0.03,0.12 -0.04,0.13 -0.04,0.12 -0.05,0.12 -0.05,0.12 -0.06,0.11 -0.06,0.11 -0.07,0.11 -0.07,0.1 -0.08,0.1 -0.09,0.1 -0.08,0.09 -0.09,0.09 -0.1,0.08 -0.1,0.08 -0.1,0.07 -0.11,0.07 -0.11,0.07 -0.12,0.06 -0.11,0.05 -0.12,0.05 -0.12,0.04 -0.13,0.04 -0.13,0.03 -0.13,0.02 -0.13,0.02 -0.13,0.01 h -0.14 c -1.43,0 -2.64,-1.2 -2.64,-2.64 0,-1.44 1.21,-2.64 2.64,-2.64 1.45,0 2.64,1.2 2.64,2.64 z"
           inkscape:connector-curvature="0"
           style="fill:#000000;stroke-width:0" /><path
           id="path946"
           d="m 722.29,406.25 v 0.3 l -0.02,0.3 -0.01,0.29 -0.03,0.28 -0.03,0.27 -0.04,0.26 -0.04,0.26 -0.05,0.24 -0.06,0.24 -0.07,0.23 -0.07,0.22 -0.07,0.21 -0.09,0.2 -0.09,0.19 -0.09,0.19 -0.1,0.17 -0.11,0.16 -0.11,0.16 -0.12,0.14 -0.12,0.13 -0.13,0.13 -0.13,0.11 -0.14,0.1 -0.15,0.1 -0.14,0.08 -0.16,0.07 -0.16,0.06 -0.16,0.05 -0.17,0.04 -0.17,0.03 -0.18,0.01 -0.18,0.01 c -1.64,0 -2.64,-1.25 -2.64,-2.64 0,-1.34 1,-2.64 2.64,-2.64 0.6,0 1.25,0.2 1.75,0.64 0.14,0.11 0.2,0.16 0.25,0.16 0.05,0 0.1,-0.05 0.1,-0.75 0,-3.69 -1.74,-6.68 -3.4,-8.32 -0.54,-0.54 -0.54,-0.65 -0.54,-0.79 0,-0.36 0.25,-0.55 0.5,-0.55 0.54,0 4.53,3.83 4.53,9.66 z"
           inkscape:connector-curvature="0"
           style="fill:#000000;stroke-width:0" /><path
           id="path948"
           d="m 749.35,422.39 h 4.83 c 3.75,0 4.14,-0.8 4.14,-2.24 0,-0.36 0,-0.95 -0.35,-2.44 -0.11,-0.25 -0.15,-0.45 -0.15,-0.56 0,-0.39 0.29,-0.59 0.59,-0.59 0.5,0 0.5,0.15 0.75,1.05 l 2.75,10.81 c 0.14,0.54 0.14,0.65 0.14,0.79 0,0.1 -0.09,0.55 -0.59,0.55 -0.5,0 -0.55,-0.25 -0.75,-1.05 -1.05,-3.87 -2.19,-4.78 -6.43,-4.78 h -4.53 l 3.19,12.66 c 0.44,1.75 0.5,1.94 2.69,1.94 h 6.58 c 6.12,0 7.26,-1.64 7.26,-5.47 0,-1.16 0,-1.35 -0.14,-2.7 -0.11,-0.65 -0.11,-0.74 -0.11,-0.9 0,-0.25 0.16,-0.59 0.61,-0.59 0.55,0 0.6,0.3 0.69,1.25 l 1,8.61 c 0.16,1.34 -0.09,1.34 -1.34,1.34 h -24.41 c -1,0 -1.5,0 -1.5,-1 0,-0.54 0.45,-0.54 1.39,-0.54 1.84,0 3.24,0 3.24,-0.89 0,-0.21 0,-0.3 -0.25,-1.21 l -6.57,-26.34 c -0.5,-1.95 -0.61,-2.34 -4.55,-2.34 -0.84,0 -1.38,0 -1.38,-0.96 0,-0.59 0.59,-0.59 0.75,-0.59 1.43,0 5.12,0.16 6.57,0.16 1.64,0 5.78,-0.16 7.43,-0.16 0.45,0 1.04,0 1.04,0.95 0,0.39 -0.29,0.49 -0.29,0.55 -0.16,0.05 -0.25,0.05 -1.4,0.05 -1.1,0 -1.35,0 -2.59,0.09 -1.45,0.16 -1.59,0.36 -1.59,1 0,0.09 0,0.41 0.18,1.14 z"
           inkscape:connector-curvature="0"
           style="fill:#000000;stroke-width:0" /><path
           id="path950"
           d="m 784.02,400.37 v -0.19 l -0.02,-0.2 -0.02,-0.2 -0.03,-0.21 -0.04,-0.21 -0.05,-0.21 -0.06,-0.22 -0.07,-0.22 -0.08,-0.22 -0.1,-0.22 -0.11,-0.22 -0.12,-0.22 -0.13,-0.21 -0.15,-0.22 -0.17,-0.21 -0.18,-0.21 -0.19,-0.2 -0.22,-0.19 -0.23,-0.19 -0.24,-0.19 -0.27,-0.17 -0.28,-0.17 -0.31,-0.15 -0.32,-0.15 -0.34,-0.14 -0.36,-0.12 -0.39,-0.12 -0.4,-0.1 -0.22,-0.04 -0.21,-0.04 -0.22,-0.04 -0.23,-0.03 -0.24,-0.03 -0.24,-0.03 -0.24,-0.02 -0.26,-0.02 c -0.25,-0.05 -0.43,-0.25 -0.43,-0.55 0,-0.54 0.55,-0.54 0.98,-0.54 4.85,0 9.47,2.43 9.52,6.21 v 11.36 c 0,1.96 0,3.55 2,5.19 1.75,1.45 3.64,1.55 4.73,1.6 0.25,0.04 0.45,0.25 0.45,0.54 0,0.5 -0.31,0.5 -0.79,0.55 -3.3,0.2 -5.69,2 -6.24,4.44 -0.15,0.54 -0.15,0.64 -0.15,2.43 v 9.88 c 0,2.08 0,3.69 -2.39,5.58 -1.99,1.54 -5.43,2.03 -7.13,2.03 -0.43,0 -0.98,0 -0.98,-0.55 0,-0.5 0.3,-0.5 0.8,-0.55 3.12,-0.18 5.57,-1.79 6.21,-4.32 0.16,-0.46 0.16,-0.55 0.16,-2.35 v -10.47 c 0,-2.28 0.39,-3.12 1.98,-4.73 1.05,-1.03 2.5,-1.53 3.9,-1.94 -4.08,-1.14 -5.88,-3.44 -5.88,-6.33 z"
           inkscape:connector-curvature="0"
           style="fill:#000000;stroke-width:0" /><path
           id="path952"
           d="m 808.32,406.25 v 0.3 l -0.01,0.3 -0.02,0.29 -0.03,0.28 -0.03,0.27 -0.04,0.26 -0.04,0.26 -0.05,0.24 -0.06,0.24 -0.07,0.23 -0.07,0.22 -0.07,0.21 -0.09,0.2 -0.09,0.19 -0.09,0.19 -0.1,0.17 -0.11,0.16 -0.11,0.16 -0.12,0.14 -0.12,0.13 -0.13,0.13 -0.13,0.11 -0.14,0.1 -0.15,0.1 -0.14,0.08 -0.16,0.07 -0.16,0.06 -0.16,0.05 -0.17,0.04 -0.17,0.03 -0.18,0.01 -0.18,0.01 c -1.64,0 -2.64,-1.25 -2.64,-2.64 0,-1.34 1,-2.64 2.64,-2.64 0.6,0 1.25,0.2 1.75,0.64 0.14,0.11 0.21,0.16 0.25,0.16 0.05,0 0.1,-0.05 0.1,-0.75 0,-3.69 -1.74,-6.68 -3.39,-8.32 -0.55,-0.54 -0.55,-0.65 -0.55,-0.79 0,-0.36 0.25,-0.55 0.5,-0.55 0.55,0 4.53,3.83 4.53,9.66 z"
           inkscape:connector-curvature="0"
           style="fill:#000000;stroke-width:0" /><path
           id="path954"
           d="m 853.61,421.25 0.03,0.13 0.03,0.15 0.05,0.16 0.04,0.18 0.06,0.19 0.06,0.21 0.06,0.22 0.07,0.22 0.08,0.23 0.09,0.24 0.1,0.25 0.1,0.24 0.11,0.25 0.12,0.25 0.13,0.25 0.14,0.25 0.14,0.24 0.16,0.24 0.17,0.23 0.17,0.22 0.19,0.22 0.2,0.2 0.21,0.19 0.22,0.18 0.23,0.16 0.25,0.14 0.12,0.07 0.13,0.06 0.14,0.05 0.13,0.05 0.14,0.05 0.14,0.04 0.15,0.03 0.15,0.03 0.15,0.02 0.16,0.02 0.15,0.01 h 0.17 c 0.25,0 1.43,0 2.48,-0.64 -1.39,-0.25 -2.39,-1.5 -2.39,-2.69 0,-0.79 0.55,-1.75 1.89,-1.75 1.09,0 2.69,0.89 2.69,2.89 0,2.6 -2.94,3.28 -4.63,3.28 -2.89,0 -4.64,-2.64 -5.23,-3.78 -1.25,3.28 -3.94,3.78 -5.38,3.78 -5.18,0 -8.03,-6.42 -8.03,-7.67 0,-0.5 0.5,-0.5 0.61,-0.5 0.39,0 0.55,0.11 0.64,0.55 1.69,5.28 4.99,6.53 6.68,6.53 0.95,0 2.68,-0.44 2.68,-3.33 0,-1.54 -0.84,-4.89 -2.68,-11.86 -0.8,-3.09 -2.54,-5.18 -4.74,-5.18 -0.3,0 -1.44,0 -2.48,0.65 1.25,0.24 2.34,1.28 2.34,2.69 0,1.34 -1.09,1.73 -1.84,1.73 -1.5,0 -2.75,-1.29 -2.75,-2.89 0,-2.28 2.5,-3.28 4.68,-3.28 3.3,0 5.08,3.49 5.24,3.78 0.59,-1.84 2.39,-3.78 5.37,-3.78 5.14,0 7.99,6.42 7.99,7.67 0,0.5 -0.46,0.5 -0.61,0.5 -0.44,0 -0.55,-0.2 -0.64,-0.54 -1.64,-5.33 -5.03,-6.53 -6.63,-6.53 -1.95,0 -2.75,1.59 -2.75,3.29 0,1.1 0.3,2.19 0.86,4.38 z"
           inkscape:connector-curvature="0"
           style="fill:#000000;stroke-width:0" /><path
           id="path956"
           d="m 890.17,394.25 v 0.02 0.03 l -0.01,0.01 v 0.02 0.01 l -0.01,0.02 v 0.01 l -0.01,0.02 -0.01,0.02 -0.01,0.02 -0.01,0.02 -0.01,0.03 -0.02,0.02 -0.02,0.03 -0.02,0.03 -0.02,0.03 -0.03,0.03 -0.03,0.04 -0.01,0.02 -0.02,0.02 -0.02,0.02 -0.02,0.02 -0.02,0.02 -0.02,0.03 -0.02,0.02 -0.02,0.02 -0.02,0.03 -0.02,0.02 -0.03,0.03 -0.02,0.03 -0.03,0.03 -0.03,0.03 -0.03,0.03 -0.03,0.03 -0.03,0.03 -0.03,0.03 -0.03,0.04 -0.04,0.03 -0.03,0.04 -0.04,0.03 -0.04,0.04 -0.04,0.04 c -6.22,6.28 -7.81,15.69 -7.81,23.31 0,8.67 1.89,17.35 8.02,23.56 0.64,0.61 0.64,0.71 0.64,0.86 0,0.35 -0.19,0.49 -0.49,0.49 -0.5,0 -4.98,-3.38 -7.92,-9.7 -2.54,-5.49 -3.14,-11.02 -3.14,-15.21 0,-3.89 0.55,-9.9 3.28,-15.54 2.99,-6.13 7.28,-9.36 7.78,-9.36 0.3,0 0.49,0.14 0.49,0.5 z"
           inkscape:connector-curvature="0"
           style="fill:#000000;stroke-width:0" /><path
           id="path958"
           d="m 911.4,426.12 h 4.28 c 1,0 1.5,0 1.5,1 0,0.55 -0.5,0.55 -1.34,0.55 h -4.14 l 1.05,5.69 c 0.2,1.04 0.9,4.57 1.2,5.17 0.45,0.95 1.3,1.7 2.34,1.7 0.19,0 1.49,0 2.44,-0.91 -2.19,-0.18 -2.69,-1.93 -2.69,-2.68 0,-1.14 0.89,-1.74 1.85,-1.74 1.29,0 2.73,1.1 2.73,2.99 0,2.29 -2.3,3.43 -4.33,3.43 -1.7,0 -4.84,-0.89 -6.32,-5.82 -0.3,-1.05 -0.46,-1.55 -1.65,-7.83 h -3.43 c -0.96,0 -1.5,0 -1.5,-0.94 0,-0.61 0.45,-0.61 1.39,-0.61 h 3.29 l -3.75,-19.67 c -0.89,-4.83 -1.73,-9.38 -4.32,-9.38 -0.21,0 -1.44,0 -2.4,0.91 2.3,0.14 2.74,1.94 2.74,2.69 0,1.14 -0.89,1.75 -1.84,1.75 -1.3,0 -2.74,-1.1 -2.74,-3 0,-2.24 2.19,-3.44 4.24,-3.44 2.73,0 4.73,2.94 5.62,4.84 1.6,3.14 2.75,9.16 2.8,9.52 z"
           inkscape:connector-curvature="0"
           style="fill:#000000;stroke-width:0" /><path
           id="path960"
           d="m 937.27,418.65 v 0.37 0.39 l -0.01,0.39 -0.02,0.41 -0.04,0.84 -0.06,0.88 -0.08,0.92 -0.1,0.95 -0.14,0.97 -0.16,1.01 -0.2,1.02 -0.23,1.03 -0.27,1.05 -0.3,1.06 -0.35,1.07 -0.39,1.07 -0.22,0.53 -0.22,0.53 -0.24,0.53 -0.25,0.53 c -2.98,6.12 -7.26,9.36 -7.76,9.36 -0.3,0 -0.5,-0.19 -0.5,-0.49 0,-0.15 0,-0.25 0.93,-1.15 4.89,-4.92 7.74,-12.85 7.74,-23.27 0,-8.51 -1.85,-17.28 -8.03,-23.56 -0.64,-0.59 -0.64,-0.7 -0.64,-0.84 0,-0.3 0.2,-0.5 0.5,-0.5 0.5,0 4.97,3.39 7.92,9.71 2.53,5.47 3.12,11 3.12,15.19 z"
           inkscape:connector-curvature="0"
           style="fill:#000000;stroke-width:0" /><path
           id="path962"
           d="m 991.97,422.84 -0.01,0.1 v 0.1 0.09 l -0.01,0.09 -0.01,0.09 v 0.08 l -0.02,0.08 -0.01,0.08 -0.01,0.07 -0.02,0.07 -0.01,0.07 -0.02,0.07 -0.02,0.06 -0.02,0.05 -0.02,0.06 -0.02,0.05 -0.03,0.04 -0.02,0.05 -0.03,0.04 -0.02,0.04 -0.03,0.03 -0.03,0.03 -0.03,0.03 -0.03,0.03 -0.03,0.02 -0.03,0.02 -0.04,0.02 -0.03,0.01 -0.04,0.01 -0.03,0.01 h -0.04 -0.03 c -0.25,0 -0.66,-0.34 -0.71,-1.29 -0.2,-4.78 -3.48,-7.52 -6.98,-7.52 -3.12,0 -5.52,2.14 -7.97,4.28 -2.53,2.3 -5.12,4.58 -8.52,4.58 -5.43,0 -8.37,-5.48 -8.37,-10.02 0,-1.59 0.66,-1.59 0.7,-1.59 0.55,0 0.71,1 0.71,1.16 0.18,5.47 3.93,7.67 6.96,7.67 3.15,0 5.54,-2.14 7.97,-4.3 2.55,-2.28 5.15,-4.58 8.52,-4.58 5.44,0 8.38,5.49 8.38,10.02 z"
           inkscape:connector-curvature="0"
           style="fill:#000000;stroke-width:0" /><path
           id="path964"
           d="m 1023.8,434.79 0.2,-0.5 0.1,-0.53 0.2,-0.55 0.2,-0.6 0.2,-0.62 0.1,-0.33 0.1,-0.33 0.2,-0.35 0.1,-0.35 0.1,-0.37 0.1,-0.37 0.1,-0.38 0.2,-0.4 0.1,-0.41 0.1,-0.41 0.2,-0.43 0.1,-0.44 0.2,-0.45 0.2,-0.47 0.1,-0.47 0.2,-0.49 0.2,-0.5 0.1,-0.51 0.2,-0.53 0.2,-0.54 0.2,-0.55 0.2,-0.57 c 3.2,-8.47 4.6,-11.56 7.6,-16.3 0.7,-1.04 0.7,-1.09 1.2,-1.09 0.7,0 1.8,0.61 2.3,1 0.7,0.66 0.7,0.7 1.3,3.14 3,13.11 6.8,26.75 7.8,29.05 0,0.09 1,1.98 7.1,2.09 1,0.05 2,2.69 2,3.78 0,0.8 -0.3,0.8 -1,0.8 -5,0 -7.2,-2.1 -7.8,-2.74 -1.4,-1.79 -2.6,-5.43 -4.9,-13.75 -1.8,-6.37 -3.4,-12.86 -4.9,-19.28 -2.7,4.13 -4.3,8.07 -6.7,14.5 -2.6,7.07 -4.2,12.25 -5.6,16.74 -0.2,1 -0.3,1.04 -0.7,1.04 -0.2,0 -1.1,0 -2.6,-1.2 -0.5,-0.44 -0.6,-0.89 -0.6,-1.44 -1.4,-13.25 -6.1,-26.36 -7.4,-28.75 -0.4,-0.75 -1,-1.64 -2,-1.64 -0.5,0 -2.4,0.25 -3.8,1.44 -0.2,0.2 -0.3,0.2 -0.3,0.2 -0.8,0 -1.9,-2.48 -1.9,-3.68 0,-1.55 3.1,-2.54 4.4,-2.54 3.2,0 5.8,7.02 6.6,9.32 3.2,9.01 4.7,16.43 5.7,21.76 z"
           inkscape:connector-curvature="0"
           style="fill:#ff0000;fill-opacity:1;stroke-width:0" /><path
           id="path966"
           d="m 1064.8,412.11 -0.1,-0.03 -0.1,-0.02 -0.1,-0.03 -0.2,-0.04 -0.1,-0.03 v -0.04 l -0.1,-0.05 -0.1,-0.05 -0.1,-0.05 -0.1,-0.05 -0.1,-0.06 v -0.06 l -0.1,-0.06 -0.1,-0.07 v -0.06 l -0.1,-0.07 v -0.07 l -0.1,-0.07 v -0.07 l -0.1,-0.08 v -0.07 -0.08 l -0.1,-0.07 v -0.08 -0.07 -0.08 l -0.1,-0.08 v -0.07 -0.08 -0.07 -0.08 -0.07 c 0,-0.94 0.7,-1.28 1.4,-1.28 0.7,0 1.9,0.55 1.9,2.22 0,2.37 -2.7,3.03 -4.5,3.03 -5.3,0 -10.1,-4.8 -10.1,-9.64 0,-3 2.1,-6.06 6.4,-6.06 5.9,0 8.7,3.44 8.7,3.94 0,0.2 -0.3,0.59 -0.6,0.59 -0.2,0 -0.3,-0.08 -0.6,-0.36 -2.7,-3.2 -6.8,-3.2 -7.4,-3.2 -2.5,0 -3.6,1.7 -3.6,3.87 0,1 0.5,4.8 2.3,7.2 1.3,1.72 3.1,2.69 4.9,2.69 0.4,0 2.1,-0.06 3,-1.04 z"
           inkscape:connector-curvature="0"
           style="fill:#ff0000;fill-opacity:1;stroke-width:0" /><path
           id="path968"
           d="m 1098.7,389.27 v 0.02 0.02 0.01 0.02 0.02 0.01 l -0.1,0.02 v 0.01 0.02 0.01 0.02 0.01 0.01 0.02 0.01 0.01 0.03 0.02 l -0.1,0.03 v 0.02 0.03 0.03 0.02 0.02 l -0.1,0.01 c -2.2,2.44 -5.6,6.49 -7.7,14.6 -1.2,4.53 -1.6,9.67 -1.6,14.29 0,13.11 3.1,22.28 9.1,28.75 0.5,0.46 0.5,0.55 0.5,0.66 0,0.5 -0.5,0.5 -0.6,0.5 -0.8,0 -3.5,-3 -4.1,-3.75 -5.1,-6.02 -8.3,-14.98 -8.3,-26.09 0,-7.08 1.2,-17.1 7.7,-25.52 0.5,-0.59 3.8,-4.39 4.7,-4.39 0.1,0 0.6,0 0.6,0.5 z"
           inkscape:connector-curvature="0"
           style="fill:#000000;stroke-width:0" /><path
           id="path970"
           d="m 1123.9,422.14 v 0.74 0.75 0.75 0.74 l -0.1,0.75 -0.1,0.74 v 0.74 l -0.1,0.73 -0.1,0.73 -0.2,0.73 -0.1,0.72 -0.2,0.72 -0.2,0.72 -0.3,0.7 -0.3,0.7 -0.1,0.35 -0.2,0.34 c -2.3,4.8 -6.3,5.6 -8.5,5.6 -2.9,0 -6.6,-1.3 -8.6,-5.94 -1.6,-3.44 -1.9,-7.33 -1.9,-11.31 0,-3.74 0.2,-8.22 2.3,-12 2.1,-4.03 5.8,-5.03 8.2,-5.03 v 1.09 c -1.9,0 -4.9,1.25 -5.8,6.03 -0.5,2.98 -0.5,7.56 -0.5,10.52 0,3.18 0,6.46 0.4,9.15 0.9,5.94 4.7,6.38 5.9,6.38 1.7,0 4.9,-0.89 5.9,-5.83 0.5,-2.78 0.5,-6.58 0.5,-9.7 0,-3.75 0,-7.13 -0.6,-10.32 -0.7,-4.73 -3.6,-6.23 -5.8,-6.23 v 0 -1.09 c 2.7,0 6.5,1.04 8.7,5.78 1.6,3.43 1.8,7.31 1.8,11.25 z"
           inkscape:connector-curvature="0"
           style="fill:#000000;stroke-width:0" /><path
           id="path972"
           d="m 1136.1,406.25 v 0.3 0.3 l -0.1,0.29 v 0.28 0.27 l -0.1,0.26 v 0.26 l -0.1,0.24 v 0.24 l -0.1,0.23 v 0.22 l -0.1,0.21 -0.1,0.2 -0.1,0.19 -0.1,0.19 -0.1,0.17 -0.1,0.16 -0.1,0.16 -0.1,0.14 -0.2,0.13 -0.1,0.13 -0.1,0.11 -0.2,0.1 -0.1,0.1 -0.1,0.08 -0.2,0.07 -0.2,0.06 -0.1,0.05 -0.2,0.04 -0.2,0.03 -0.1,0.01 -0.2,0.01 c -1.7,0 -2.7,-1.25 -2.7,-2.64 0,-1.34 1,-2.64 2.7,-2.64 0.6,0 1.2,0.2 1.7,0.64 0.2,0.11 0.2,0.16 0.3,0.16 0,0 0.1,-0.05 0.1,-0.75 0,-3.69 -1.8,-6.68 -3.4,-8.32 -0.6,-0.54 -0.6,-0.65 -0.6,-0.79 0,-0.36 0.3,-0.55 0.5,-0.55 0.6,0 4.6,3.83 4.6,9.66 z"
           inkscape:connector-curvature="0"
           style="fill:#000000;stroke-width:0" /><path
           id="path974"
           d="m 1173.8,424.78 h 0.1 0.1 0.1 v 0 h 0.1 l 0.1,0.01 h 0.1 l 0.1,0.01 0.1,0.01 0.1,0.02 0.1,0.02 0.1,0.02 0.1,0.02 0.1,0.03 0.1,0.03 0.1,0.04 0.1,0.04 0.1,0.05 0.1,0.05 0.1,0.06 0.1,0.07 0.1,0.07 v 0.04 0.04 l 0.1,0.04 v 0.05 0.04 l 0.1,0.05 v 0.05 0.05 0.05 l 0.1,0.06 v 0.06 0.06 0.06 0.06 l 0.1,0.07 v 0.07 0.07 0.08 0.07 0.08 c 0,1.19 -1.1,1.19 -2,1.19 H 1163 c -7.5,0 -13.1,-8.22 -13.1,-14.14 0,-4.39 3,-7.88 7.5,-7.88 l 0.1,1.1 c -2.5,0 -4.5,1.79 -4.5,5.37 0,1.5 0.6,5.59 2.4,8.53 2.1,3.44 5,4.13 6.7,4.13 4.2,0 4.6,-3.28 4.6,-4.83 0,-2.34 -1,-6.42 -2.7,-8.97 -1.9,-2.94 -4.6,-4.23 -6.5,-4.23 v 0 l -0.1,-1.1 c 5.9,0 12.5,6.03 12.5,13.71 0,0.84 0,3.23 -1.5,5.42 z"
           inkscape:connector-curvature="0"
           style="fill:#00c800;fill-opacity:1;stroke-width:0" /><path
           id="path976"
           d="m 1195.9,430.54 h -1.2 c -0.1,-0.76 -0.5,-2.83 -0.9,-3.17 -0.3,-0.2 -3,-0.2 -3.5,-0.2 h -6.4 c 3.7,3.23 4.9,4.2 7,5.84 2.6,2.06 5,4.22 5,7.53 0,4.22 -3.7,6.8 -8.2,6.8 -4.3,0 -7.2,-3.03 -7.2,-6.23 0,-1.79 1.5,-1.96 1.8,-1.96 0.9,0 1.9,0.6 1.9,1.85 0,0.62 -0.3,1.84 -2.1,1.84 1.1,2.47 3.5,3.23 5.1,3.23 3.5,0 5.3,-2.7 5.3,-5.53 0,-3.03 -2.2,-5.43 -3.3,-6.68 l -8.4,-8.3 c -0.3,-0.31 -0.3,-0.39 -0.3,-1.36 h 14.3 z"
           inkscape:connector-curvature="0"
           style="fill:#00c800;fill-opacity:1;stroke-width:0" /><path
           id="path978"
           d="m 1225.4,394.25 v 0.02 0.03 0.01 0.02 0.01 l -0.1,0.02 v 0.01 0.02 0.02 0.02 0.02 0.03 0.02 0.03 l -0.1,0.03 v 0.03 0.03 0.04 l -0.1,0.02 v 0.02 0.02 0.02 0.02 l -0.1,0.03 v 0.02 0.02 0.03 0.02 l -0.1,0.03 v 0.03 0.03 0.03 l -0.1,0.03 v 0.03 0.03 l -0.1,0.03 v 0.04 0.03 l -0.1,0.04 v 0.03 0.04 l -0.1,0.04 c -6.2,6.28 -7.8,15.69 -7.8,23.31 0,8.67 1.9,17.35 8,23.56 0.7,0.61 0.7,0.71 0.7,0.86 0,0.35 -0.2,0.49 -0.5,0.49 -0.5,0 -5,-3.38 -7.9,-9.7 -2.6,-5.49 -3.2,-11.02 -3.2,-15.21 0,-3.89 0.6,-9.9 3.3,-15.54 3,-6.13 7.3,-9.36 7.8,-9.36 0.3,0 0.5,0.14 0.5,0.5 z"
           inkscape:connector-curvature="0"
           style="fill:#00c800;fill-opacity:1;stroke-width:0" /><path
           id="path980"
           d="m 1246.6,426.12 h 4.3 c 1,0 1.5,0 1.5,1 0,0.55 -0.5,0.55 -1.4,0.55 h -4.1 l 1,5.69 c 0.2,1.04 0.9,4.57 1.2,5.17 0.5,0.95 1.3,1.7 2.4,1.7 0.2,0 1.5,0 2.4,-0.91 -2.2,-0.18 -2.7,-1.93 -2.7,-2.68 0,-1.14 0.9,-1.74 1.9,-1.74 1.3,0 2.7,1.1 2.7,2.99 0,2.29 -2.3,3.43 -4.3,3.43 -1.7,0 -4.9,-0.89 -6.3,-5.82 -0.3,-1.05 -0.5,-1.55 -1.7,-7.83 h -3.4 c -1,0 -1.5,0 -1.5,-0.94 0,-0.61 0.4,-0.61 1.4,-0.61 h 3.3 l -3.8,-19.67 c -0.9,-4.83 -1.7,-9.38 -4.3,-9.38 -0.2,0 -1.4,0 -2.4,0.91 2.3,0.14 2.7,1.94 2.7,2.69 0,1.14 -0.9,1.75 -1.8,1.75 -1.3,0 -2.7,-1.1 -2.7,-3 0,-2.24 2.1,-3.44 4.2,-3.44 2.7,0 4.7,2.94 5.6,4.84 1.6,3.14 2.8,9.16 2.8,9.52 z"
           inkscape:connector-curvature="0"
           style="fill:#00c800;fill-opacity:1;stroke-width:0" /><path
           id="path982"
           d="m 1272.5,418.65 v 0.37 0.39 l -0.1,0.39 v 0.41 0.84 l -0.1,0.88 v 0.92 l -0.2,0.95 -0.1,0.97 -0.2,1.01 -0.1,1.02 -0.3,1.03 -0.2,1.05 -0.4,1.06 -0.3,1.07 -0.4,1.07 -0.2,0.53 -0.2,0.53 -0.3,0.53 -0.2,0.53 c -3,6.12 -7.3,9.36 -7.8,9.36 -0.3,0 -0.5,-0.19 -0.5,-0.49 0,-0.15 0,-0.25 1,-1.15 4.9,-4.92 7.7,-12.85 7.7,-23.27 0,-8.51 -1.8,-17.28 -8,-23.56 -0.7,-0.59 -0.7,-0.7 -0.7,-0.84 0,-0.3 0.2,-0.5 0.5,-0.5 0.5,0 5,3.39 7.9,9.71 2.6,5.47 3.2,11 3.2,15.19 z"
           inkscape:connector-curvature="0"
           style="fill:#00c800;fill-opacity:1;stroke-width:0" /><path
           id="path984"
           d="m 1292.6,418.61 v 1.36 l -0.1,1.43 -0.1,1.47 -0.1,1.53 -0.2,1.57 -0.2,1.61 -0.4,1.63 -0.3,1.66 -0.3,0.83 -0.2,0.84 -0.3,0.84 -0.2,0.84 -0.4,0.84 -0.3,0.84 -0.3,0.85 -0.4,0.83 -0.4,0.84 -0.4,0.83 -0.5,0.83 -0.5,0.82 -0.5,0.82 -0.5,0.81 -0.6,0.8 -0.6,0.8 c -0.5,0.59 -3.7,4.39 -4.6,4.39 -0.3,0 -0.6,-0.11 -0.6,-0.5 0,-0.2 0.1,-0.36 0.3,-0.5 2.4,-2.59 5.6,-6.63 7.7,-14.55 1.1,-4.53 1.6,-9.67 1.6,-14.29 0,-5.04 -0.5,-10.13 -1.8,-15 -1.9,-6.99 -4.8,-10.97 -7.4,-13.75 -0.4,-0.46 -0.4,-0.55 -0.4,-0.66 0,-0.39 0.3,-0.5 0.6,-0.5 0.7,0 3.5,3.05 4.1,3.75 5,6.02 8.3,14.98 8.3,26.09 z"
           inkscape:connector-curvature="0"
           style="fill:#000000;stroke-width:0" /></g>    </g>
    <path
       style="fill:none;fill-rule:evenodd;stroke:#000000;stroke-width:0.26499999;stroke-linecap:butt;stroke-linejoin:miter;stroke-miterlimit:4;stroke-dasharray:none;stroke-opacity:1;marker-start:url(#marker1428)"
       d="m 118.18779,263.81759 -17.69497,7.67937"
       id="path1027"
       inkscape:connector-curvature="0"
       sodipodi:nodetypes="cc" />
    <path
       style="fill:none;fill-rule:evenodd;stroke:#000000;stroke-width:0.26500049px;stroke-linecap:butt;stroke-linejoin:miter;stroke-opacity:1;marker-start:url(#Arrow1Lstart)"
       d="m 150.94597,260.36533 57.19049,15.8157"
       id="path1027-3"
       inkscape:connector-curvature="0"
       sodipodi:nodetypes="cc" />
    <g
       id="g1578"
       transform="matrix(0.65088178,0,0,0.65088178,-38.438532,208.74211)"
       style="fill:#ff0000;fill-opacity:1">
      <g
         id="g1576"
         transform="matrix(0.3,0,0,-0.3,-52.5,222.75)"
         xml:space="preserve"
         stroke-miterlimit="10.433"
         font-style="normal"
         font-variant="normal"
         font-weight="normal"
         font-stretch="normal"
         font-size-adjust="none"
         letter-spacing="normal"
         word-spacing="normal"
         style="font-style:normal;font-variant:normal;font-weight:normal;font-stretch:normal;letter-spacing:normal;word-spacing:normal;text-anchor:start;fill:#ff0000;fill-opacity:1;fill-rule:evenodd;stroke:#000000;stroke-linecap:butt;stroke-linejoin:miter;stroke-miterlimit:10.43299961;stroke-dasharray:none;stroke-dashoffset:0;stroke-opacity:1"><path
           d="m 771.09145,407.19894 -6.97,-0.54 v -1.55 c 3.24,0 3.69,-0.3 3.69,-2.73 v -13.41 c 0,-2.23 -0.55,-2.23 -3.89,-2.23 v -1.55 c 1.59,0.05 4.28,0.16 5.48,0.16 1.75,0 3.49,-0.11 5.19,-0.16 v 1.55 c -3.29,0 -3.5,0.25 -3.5,2.18 z"
           id="path1506"
           inkscape:connector-curvature="0"
           style="fill:#ff0000;fill-opacity:1;stroke-width:0" /><path
           d="m 771.30145,415.87894 -0.01,0.14 -0.01,0.15 -0.02,0.14 -0.02,0.14 -0.03,0.13 -0.04,0.13 -0.04,0.13 -0.05,0.12 -0.06,0.12 -0.06,0.12 -0.06,0.11 -0.07,0.1 -0.08,0.1 -0.08,0.1 -0.08,0.1 -0.09,0.08 -0.1,0.09 -0.09,0.08 -0.1,0.07 -0.11,0.07 -0.11,0.07 -0.11,0.06 -0.11,0.05 -0.12,0.05 -0.11,0.04 -0.13,0.04 -0.12,0.03 -0.12,0.03 -0.13,0.02 -0.13,0.01 -0.13,0.01 -0.13,0.01 c -1.54,0 -2.64,-1.35 -2.64,-2.64 0,-1.35 1.1,-2.64 2.64,-2.64 1.4,0 2.65,1.04 2.65,2.64 z"
           id="path1508"
           inkscape:connector-curvature="0"
           style="fill:#ff0000;fill-opacity:1;stroke-width:0" /><path
           d="m 786.44145,394.85894 0.11,-0.02 0.12,-0.02 0.15,-0.03 0.15,-0.04 0.17,-0.04 0.18,-0.04 0.19,-0.05 0.2,-0.06 0.2,-0.06 0.21,-0.07 0.22,-0.08 0.22,-0.08 0.22,-0.1 0.22,-0.1 0.22,-0.11 0.22,-0.12 0.22,-0.14 0.21,-0.14 0.2,-0.15 0.2,-0.16 0.19,-0.18 0.18,-0.19 0.17,-0.2 0.16,-0.21 0.14,-0.22 0.07,-0.12 0.06,-0.12 0.06,-0.13 0.05,-0.12 0.05,-0.14 0.04,-0.13 0.05,-0.14 0.03,-0.14 0.03,-0.15 0.03,-0.15 0.02,-0.16 0.01,-0.15 0.01,-0.17 v -0.16 c 0,-2.53 -1.75,-4.53 -5.62,-4.53 -4.19,0 -5.99,2.84 -6.94,7.07 -0.14,0.64 -0.19,0.85 -0.69,0.85 -0.65,0 -0.65,-0.35 -0.65,-1.25 v -6.58 c 0,-0.84 0,-1.19 0.54,-1.19 0.25,0 0.3,0.05 1.25,1 0.1,0.1 0.1,0.19 1,1.14 2.19,-2.09 4.44,-2.14 5.49,-2.14 5.72,0 8.01,3.35 8.01,6.92 0,2.64 -1.5,4.14 -2.09,4.74 -1.64,1.59 -3.59,2 -5.69,2.39 -2.78,0.55 -6.12,1.2 -6.12,4.09 0,1.74 1.29,3.78 5.58,3.78 5.48,0 5.73,-4.48 5.82,-6.03 0.07,-0.45 0.5,-0.45 0.61,-0.45 0.64,0 0.64,0.25 0.64,1.2 v 5.03 c 0,0.85 0,1.19 -0.54,1.19 -0.25,0 -0.35,0 -1,-0.59 -0.14,-0.21 -0.64,-0.64 -0.85,-0.8 -1.89,1.39 -3.93,1.39 -4.68,1.39 -6.08,0 -7.97,-3.33 -7.97,-6.12 0,-1.74 0.79,-3.14 2.14,-4.24 1.59,-1.29 3,-1.59 6.58,-2.28 z"
           id="path1510"
           inkscape:connector-curvature="0"
           style="fill:#ff0000;fill-opacity:1;stroke-width:0" /><path
           d="m 819.23145,395.84894 -0.02,0.59 -0.04,0.59 -0.07,0.58 -0.1,0.57 -0.13,0.56 -0.14,0.55 -0.18,0.54 -0.2,0.53 -0.22,0.51 -0.25,0.5 -0.26,0.49 -0.29,0.47 -0.31,0.46 -0.33,0.44 -0.35,0.43 -0.36,0.4 -0.39,0.39 -0.4,0.37 -0.41,0.35 -0.44,0.32 -0.44,0.31 -0.46,0.28 -0.48,0.26 -0.49,0.24 -0.49,0.21 -0.51,0.18 -0.53,0.16 -0.53,0.13 -0.54,0.11 -0.54,0.07 -0.56,0.05 -0.56,0.01 -0.05,-1.09 c 2.19,0 4.33,-1.1 5.63,-3.24 1.29,-2.14 1.29,-5.03 1.29,-6.92 0,-1.8 0,-4.48 -1.09,-6.67 -1.09,-2.25 -3.28,-3.69 -5.78,-3.69 v 0 c -2.14,0 -4.33,1.05 -5.67,3.33 -1.25,2.2 -1.25,5.23 -1.25,7.03 0,1.94 0,4.63 1.18,6.83 1.36,2.28 3.69,3.33 5.69,3.33 l 0.05,1.09 c -6.22,0 -11.06,-5.42 -11.06,-11.65 0,-6.43 5.18,-11.21 11.01,-11.21 6.03,0 11.07,4.88 11.07,11.21 z"
           id="path1512"
           inkscape:connector-curvature="0"
           style="fill:#ff0000;fill-opacity:1;stroke-width:0" /><path
           d="m 829.34145,405.10894 h 7.12 v 1.55 h -7.12 v 9.17 h -1.25 c -0.05,-4.08 -1.55,-9.42 -6.42,-9.61 v -1.11 h 4.23 v -13.75 c 0,-6.12 4.63,-6.72 6.42,-6.72 3.53,0 4.94,3.53 4.94,6.72 v 2.84 h -1.25 v -2.73 c 0,-3.69 -1.5,-5.58 -3.34,-5.58 -3.33,0 -3.33,4.53 -3.33,5.38 z"
           id="path1514"
           inkscape:connector-curvature="0"
           style="fill:#ff0000;fill-opacity:1;stroke-width:0" /><path
           d="m 848.34145,401.73894 v 5.46 l -6.92,-0.54 v -1.55 c 3.49,0 3.89,-0.34 3.89,-2.78 v -13.36 c 0,-2.23 -0.55,-2.23 -3.89,-2.23 v -1.55 c 1.95,0.05 4.28,0.16 5.69,0.16 1.98,0 4.33,0 6.33,-0.16 v 1.55 h -1.05 c -3.69,0 -3.8,0.54 -3.8,2.34 v 7.67 c 0,4.92 2.1,9.36 5.89,9.36 0.35,0 0.44,0 0.55,-0.05 -0.16,-0.04 -1.16,-0.64 -1.16,-1.93 0,-1.41 1.05,-2.14 2.16,-2.14 0.89,0 2.14,0.59 2.14,2.18 0,1.6 -1.55,3.03 -3.69,3.03 -3.64,0 -5.44,-3.32 -6.14,-5.46 z"
           id="path1516"
           inkscape:connector-curvature="0"
           style="fill:#ff0000;fill-opacity:1;stroke-width:0" /><path
           d="m 883.06145,395.84894 -0.02,0.59 -0.04,0.59 -0.07,0.58 -0.1,0.57 -0.12,0.56 -0.15,0.55 -0.18,0.54 -0.2,0.53 -0.22,0.51 -0.24,0.5 -0.27,0.49 -0.29,0.47 -0.31,0.46 -0.33,0.44 -0.34,0.43 -0.37,0.4 -0.38,0.39 -0.4,0.37 -0.42,0.35 -0.43,0.32 -0.45,0.31 -0.46,0.28 -0.48,0.26 -0.48,0.24 -0.5,0.21 -0.51,0.18 -0.52,0.16 -0.53,0.13 -0.54,0.11 -0.55,0.07 -0.56,0.05 -0.56,0.01 -0.05,-1.09 c 2.19,0 4.33,-1.1 5.63,-3.24 1.3,-2.14 1.3,-5.03 1.3,-6.92 0,-1.8 0,-4.48 -1.1,-6.67 -1.09,-2.25 -3.28,-3.69 -5.78,-3.69 v 0 c -2.14,0 -4.33,1.05 -5.67,3.33 -1.25,2.2 -1.25,5.23 -1.25,7.03 0,1.94 0,4.63 1.19,6.83 1.36,2.28 3.68,3.33 5.68,3.33 l 0.05,1.09 c -6.22,0 -11.06,-5.42 -11.06,-11.65 0,-6.43 5.19,-11.21 11.01,-11.21 6.04,0 11.07,4.88 11.07,11.21 z"
           id="path1518"
           inkscape:connector-curvature="0"
           style="fill:#ff0000;fill-opacity:1;stroke-width:0" /><path
           d="m 893.11145,403.91894 v 3.28 l -7.17,-0.54 v -1.55 c 3.54,0 3.89,-0.3 3.89,-2.48 v -23.32 c 0,-2.25 -0.55,-2.25 -3.89,-2.25 v -1.54 c 1.7,0.06 4.28,0.15 5.57,0.15 1.35,0 3.9,-0.09 5.65,-0.15 v 1.54 c -3.35,0 -3.9,0 -3.9,2.25 v 8.36 0.46 l 0.71,0.65 c -0.71,1.05 -0.71,1.1 -0.71,2.08 v 0 11.13 c 1.44,2.53 3.9,3.98 6.43,3.98 3.64,0 6.68,-4.39 6.68,-10.02 0,-6.03 -3.5,-10.21 -7.18,-10.21 -1.99,0 -3.88,1 -5.22,3.04 l -0.71,-0.65 c 0.25,-0.8 2.35,-3.49 6.13,-3.49 5.94,0 11.11,4.88 11.11,11.31 0,6.33 -4.83,11.25 -10.41,11.25 -3.89,0 -5.98,-2.18 -6.98,-3.28 z"
           id="path1520"
           inkscape:connector-curvature="0"
           style="fill:#ff0000;fill-opacity:1;stroke-width:0" /><path
           d="m 921.08145,407.19894 -6.97,-0.54 v -1.55 c 3.23,0 3.68,-0.3 3.68,-2.73 v -13.41 c 0,-2.23 -0.54,-2.23 -3.88,-2.23 v -1.55 c 1.59,0.05 4.28,0.16 5.48,0.16 1.75,0 3.48,-0.11 5.19,-0.16 v 1.55 c -3.3,0 -3.5,0.25 -3.5,2.18 z"
           id="path1522"
           inkscape:connector-curvature="0"
           style="fill:#ff0000;fill-opacity:1;stroke-width:0" /><path
           d="m 921.28145,415.87894 v 0.14 l -0.01,0.15 -0.02,0.14 -0.03,0.14 -0.03,0.13 -0.03,0.13 -0.05,0.13 -0.05,0.12 -0.05,0.12 -0.06,0.12 -0.07,0.11 -0.07,0.1 -0.07,0.1 -0.08,0.1 -0.09,0.1 -0.09,0.08 -0.09,0.09 -0.1,0.08 -0.1,0.07 -0.1,0.07 -0.11,0.07 -0.11,0.06 -0.12,0.05 -0.11,0.05 -0.12,0.04 -0.12,0.04 -0.12,0.03 -0.13,0.03 -0.12,0.02 -0.13,0.01 -0.13,0.01 -0.13,0.01 c -1.55,0 -2.64,-1.35 -2.64,-2.64 0,-1.35 1.09,-2.64 2.64,-2.64 1.39,0 2.64,1.04 2.64,2.64 z"
           id="path1524"
           inkscape:connector-curvature="0"
           style="fill:#ff0000;fill-opacity:1;stroke-width:0" /><path
           d="m 931.89145,396.04894 v 0.38 l 0.01,0.36 0.02,0.36 0.02,0.35 0.02,0.34 0.03,0.34 0.04,0.32 0.04,0.32 0.05,0.31 0.05,0.3 0.05,0.29 0.06,0.29 0.14,0.55 0.15,0.51 0.17,0.49 0.18,0.46 0.19,0.43 0.21,0.4 0.22,0.38 0.24,0.35 0.24,0.32 0.25,0.3 0.25,0.28 0.27,0.26 0.27,0.23 0.27,0.21 0.28,0.19 0.28,0.16 0.28,0.15 0.29,0.13 0.28,0.12 0.28,0.09 0.28,0.08 0.28,0.06 0.27,0.05 0.26,0.03 0.26,0.02 0.25,0.01 c 0.44,0 3.58,-0.05 5.33,-1.85 -2.04,-0.15 -2.34,-1.64 -2.34,-2.29 0,-1.3 0.89,-2.3 2.3,-2.3 1.28,0 2.28,0.86 2.28,2.34 0,3.39 -3.78,5.33 -7.63,5.33 -6.22,0 -10.81,-5.37 -10.81,-11.55 0,-6.37 4.94,-11.31 10.72,-11.31 6.67,0 8.26,5.99 8.26,6.47 0,0.5 -0.5,0.5 -0.64,0.5 -0.45,0 -0.55,-0.19 -0.65,-0.5 -1.44,-4.62 -4.68,-5.22 -6.52,-5.22 -2.64,0 -7.03,2.14 -7.03,10.16 z"
           id="path1526"
           inkscape:connector-curvature="0"
           style="fill:#ff0000;fill-opacity:1;stroke-width:0" /><path
           d="m 664.45155,330.05883 0.07,-0.11 0.07,-0.11 0.08,-0.11 0.08,-0.12 0.09,-0.12 0.1,-0.12 0.1,-0.13 0.11,-0.12 0.1,-0.13 0.12,-0.13 0.23,-0.26 0.24,-0.25 0.24,-0.25 0.12,-0.11 0.13,-0.12 0.11,-0.11 0.12,-0.1 0.12,-0.1 0.11,-0.1 0.11,-0.08 0.1,-0.08 0.1,-0.08 0.1,-0.06 0.09,-0.06 0.08,-0.05 0.08,-0.03 0.07,-0.03 0.04,-0.01 0.03,-0.01 h 0.03 0.02 c 0.45,0 0.45,0.4 0.45,1.15 v 8.66 c 0,1.95 0.19,2.2 3.44,2.2 v 1.53 c -1.84,-0.04 -4.59,-0.14 -6.08,-0.14 -2,0 -6.23,0 -8.03,0.14 v -1.53 h 1.6 c 4.48,0 4.64,-0.55 4.64,-2.39 v -3.19 c 0,-5.59 -6.33,-6.03 -7.72,-6.03 -3.25,0 -13.11,1.74 -13.11,16.58 0,14.91 9.81,16.55 12.8,16.55 5.34,0 9.87,-4.49 10.87,-11.82 0.09,-0.68 0.09,-0.84 0.8,-0.84 0.79,0 0.79,0.16 0.79,1.2 v 11.8 c 0,0.86 0,1.2 -0.54,1.2 -0.2,0 -0.41,0 -0.81,-0.59 l -2.49,-3.69 c -1.59,1.6 -4.28,4.28 -9.22,4.28 -9.26,0 -17.33,-7.87 -17.33,-18.09 0,-10.2 7.97,-18.12 17.44,-18.12 3.63,0 7.61,1.29 9.31,4.23 z"
           id="path1528"
           inkscape:connector-curvature="0"
           style="fill:#ff0000;fill-opacity:1;stroke-width:0" /><path
           d="m 690.62155,330.69883 0.02,-0.19 0.03,-0.18 0.04,-0.19 0.04,-0.18 0.05,-0.19 0.05,-0.18 0.06,-0.18 0.07,-0.18 0.08,-0.18 0.08,-0.17 0.09,-0.18 0.09,-0.16 0.1,-0.16 0.11,-0.16 0.11,-0.16 0.12,-0.14 0.13,-0.14 0.13,-0.14 0.14,-0.13 0.14,-0.12 0.15,-0.12 0.16,-0.1 0.16,-0.1 0.17,-0.09 0.18,-0.08 0.18,-0.07 0.18,-0.06 0.2,-0.05 0.2,-0.04 0.2,-0.03 0.21,-0.02 0.22,-0.01 c 1.03,0 4.08,0.71 4.08,4.74 v 2.78 h -1.25 v -2.78 c 0,-2.89 -1.24,-3.19 -1.8,-3.19 -1.64,0 -1.84,2.23 -1.84,2.48 v 9.97 c 0,2.1 0,4.03 -1.78,5.88 -1.96,1.93 -4.44,2.73 -6.83,2.73 -4.1,0 -7.53,-2.33 -7.53,-5.62 0,-1.49 1,-2.35 2.29,-2.35 1.39,0 2.3,1 2.3,2.3 0,0.59 -0.25,2.23 -2.55,2.3 1.35,1.73 3.78,2.28 5.38,2.28 2.45,0 5.28,-1.94 5.28,-6.38 v -1.84 -1.05 -4.98 c 0,-4.74 -3.58,-6.42 -5.83,-6.42 -2.44,0 -4.48,1.75 -4.48,4.23 0,2.73 2.09,6.88 10.31,7.17 v 0 1.05 c -2.53,-0.14 -6.02,-0.3 -9.16,-1.8 -3.73,-1.69 -4.98,-4.28 -4.98,-6.47 0,-4.03 4.83,-5.28 7.97,-5.28 3.29,0 5.58,1.99 6.53,4.33 z"
           id="path1530"
           inkscape:connector-curvature="0"
           style="fill:#ff0000;fill-opacity:1;stroke-width:0" /><path
           d="m 718.47155,330.85883 v -4.49 l 7.17,0.55 v 1.55 c -3.49,0 -3.89,0.34 -3.89,2.78 v 17.68 l -7.33,-0.54 v -1.55 c 3.5,0 3.89,-0.34 3.89,-2.78 v -8.88 c 0,-4.32 -2.39,-7.71 -6.03,-7.71 -4.17,0 -4.38,2.34 -4.38,4.93 v 16.53 l -7.33,-0.54 v -1.55 c 3.9,0 3.9,-0.14 3.9,-4.58 v -7.47 c 0,-3.89 0,-8.42 7.56,-8.42 2.79,0 4.98,1.39 6.44,4.49 z"
           id="path1532"
           inkscape:connector-curvature="0"
           style="fill:#ff0000;fill-opacity:1;stroke-width:0" /><path
           d="m 737.06155,336.58883 0.11,-0.02 0.13,-0.02 0.14,-0.03 0.16,-0.04 0.17,-0.04 0.17,-0.04 0.19,-0.05 0.2,-0.06 0.21,-0.06 0.21,-0.07 0.21,-0.08 0.22,-0.08 0.22,-0.1 0.22,-0.1 0.22,-0.11 0.22,-0.12 0.22,-0.14 0.21,-0.14 0.21,-0.15 0.19,-0.16 0.19,-0.18 0.18,-0.19 0.17,-0.2 0.16,-0.21 0.14,-0.22 0.07,-0.12 0.06,-0.12 0.06,-0.13 0.05,-0.12 0.05,-0.14 0.05,-0.13 0.04,-0.14 0.03,-0.14 0.04,-0.15 0.02,-0.15 0.02,-0.16 0.02,-0.15 v -0.17 l 0.01,-0.16 c 0,-2.53 -1.75,-4.53 -5.63,-4.53 -4.18,0 -5.98,2.84 -6.93,7.07 -0.15,0.64 -0.19,0.85 -0.69,0.85 -0.66,0 -0.66,-0.35 -0.66,-1.25 v -6.58 c 0,-0.84 0,-1.19 0.55,-1.19 0.25,0 0.3,0.05 1.25,1 0.09,0.1 0.09,0.19 1,1.14 2.18,-2.09 4.43,-2.14 5.48,-2.14 5.72,0 8.02,3.35 8.02,6.92 0,2.64 -1.5,4.14 -2.1,4.74 -1.64,1.59 -3.59,2 -5.68,2.39 -2.79,0.55 -6.13,1.2 -6.13,4.09 0,1.74 1.3,3.78 5.58,3.78 5.48,0 5.73,-4.48 5.83,-6.03 0.06,-0.45 0.5,-0.45 0.61,-0.45 0.64,0 0.64,0.25 0.64,1.2 v 5.03 c 0,0.85 0,1.19 -0.55,1.19 -0.25,0 -0.34,0 -1,-0.59 -0.14,-0.21 -0.64,-0.64 -0.84,-0.8 -1.89,1.39 -3.94,1.39 -4.69,1.39 -6.08,0 -7.97,-3.33 -7.97,-6.12 0,-1.74 0.8,-3.14 2.14,-4.24 1.59,-1.29 3,-1.59 6.58,-2.28 z"
           id="path1534"
           inkscape:connector-curvature="0"
           style="fill:#ff0000;fill-opacity:1;stroke-width:0" /><path
           d="m 756.74155,336.58883 0.11,-0.02 0.13,-0.02 0.14,-0.03 0.16,-0.04 0.17,-0.04 0.17,-0.04 0.19,-0.05 0.2,-0.06 0.21,-0.06 0.21,-0.07 0.21,-0.08 0.22,-0.08 0.22,-0.1 0.22,-0.1 0.22,-0.11 0.22,-0.12 0.22,-0.14 0.21,-0.14 0.21,-0.15 0.19,-0.16 0.19,-0.18 0.18,-0.19 0.17,-0.2 0.16,-0.21 0.14,-0.22 0.07,-0.12 0.06,-0.12 0.06,-0.13 0.05,-0.12 0.05,-0.14 0.05,-0.13 0.04,-0.14 0.03,-0.14 0.04,-0.15 0.02,-0.15 0.02,-0.16 0.02,-0.15 v -0.17 l 0.01,-0.16 c 0,-2.53 -1.75,-4.53 -5.63,-4.53 -4.18,0 -5.98,2.84 -6.93,7.07 -0.15,0.64 -0.19,0.85 -0.69,0.85 -0.66,0 -0.66,-0.35 -0.66,-1.25 v -6.58 c 0,-0.84 0,-1.19 0.55,-1.19 0.25,0 0.3,0.05 1.25,1 0.09,0.1 0.09,0.19 1,1.14 2.18,-2.09 4.43,-2.14 5.48,-2.14 5.72,0 8.02,3.35 8.02,6.92 0,2.64 -1.5,4.14 -2.1,4.74 -1.64,1.59 -3.59,2 -5.68,2.39 -2.79,0.55 -6.13,1.2 -6.13,4.09 0,1.74 1.3,3.78 5.58,3.78 5.48,0 5.73,-4.48 5.83,-6.03 0.06,-0.45 0.5,-0.45 0.61,-0.45 0.64,0 0.64,0.25 0.64,1.2 v 5.03 c 0,0.85 0,1.19 -0.55,1.19 -0.25,0 -0.34,0 -1,-0.59 -0.14,-0.21 -0.64,-0.64 -0.84,-0.8 -1.89,1.39 -3.94,1.39 -4.69,1.39 -6.08,0 -7.97,-3.33 -7.97,-6.12 0,-1.74 0.8,-3.14 2.14,-4.24 1.59,-1.29 3,-1.59 6.58,-2.28 z"
           id="path1536"
           inkscape:connector-curvature="0"
           style="fill:#ff0000;fill-opacity:1;stroke-width:0" /><path
           d="m 774.87155,348.92883 -6.97,-0.54 v -1.55 c 3.24,0 3.69,-0.3 3.69,-2.73 v -13.41 c 0,-2.23 -0.55,-2.23 -3.89,-2.23 v -1.55 c 1.59,0.05 4.28,0.16 5.49,0.16 1.75,0 3.48,-0.11 5.18,-0.16 v 1.55 c -3.3,0 -3.5,0.25 -3.5,2.18 z"
           id="path1538"
           inkscape:connector-curvature="0"
           style="fill:#ff0000;fill-opacity:1;stroke-width:0" /><path
           d="m 775.07155,357.60883 v 0.14 l -0.01,0.15 -0.02,0.14 -0.02,0.14 -0.03,0.13 -0.04,0.13 -0.04,0.13 -0.05,0.12 -0.06,0.12 -0.06,0.12 -0.06,0.11 -0.07,0.1 -0.08,0.1 -0.08,0.1 -0.08,0.1 -0.09,0.08 -0.1,0.09 -0.09,0.08 -0.1,0.07 -0.11,0.07 -0.11,0.07 -0.11,0.06 -0.11,0.05 -0.12,0.05 -0.11,0.04 -0.13,0.04 -0.12,0.03 -0.12,0.03 -0.13,0.02 -0.13,0.01 -0.13,0.01 -0.12,0.01 c -1.55,0 -2.65,-1.35 -2.65,-2.64 0,-1.35 1.1,-2.64 2.65,-2.64 1.38,0 2.63,1.04 2.63,2.64 z"
           id="path1540"
           inkscape:connector-curvature="0"
           style="fill:#ff0000;fill-opacity:1;stroke-width:0" /><path
           d="m 796.45155,330.69883 0.02,-0.19 0.03,-0.18 0.04,-0.19 0.04,-0.18 0.05,-0.19 0.05,-0.18 0.07,-0.18 0.06,-0.18 0.08,-0.18 0.08,-0.17 0.09,-0.18 0.09,-0.16 0.1,-0.16 0.11,-0.16 0.11,-0.16 0.12,-0.14 0.13,-0.14 0.13,-0.14 0.14,-0.13 0.14,-0.12 0.15,-0.12 0.16,-0.1 0.16,-0.1 0.17,-0.09 0.18,-0.08 0.18,-0.07 0.19,-0.06 0.19,-0.05 0.2,-0.04 0.2,-0.03 0.21,-0.02 0.22,-0.01 c 1.03,0 4.08,0.71 4.08,4.74 v 2.78 h -1.25 v -2.78 c 0,-2.89 -1.23,-3.19 -1.8,-3.19 -1.64,0 -1.84,2.23 -1.84,2.48 v 9.97 c 0,2.1 0,4.03 -1.78,5.88 -1.96,1.93 -4.44,2.73 -6.83,2.73 -4.1,0 -7.53,-2.33 -7.53,-5.62 0,-1.49 1,-2.35 2.3,-2.35 1.38,0 2.29,1 2.29,2.3 0,0.59 -0.25,2.23 -2.54,2.3 1.34,1.73 3.78,2.28 5.37,2.28 2.45,0 5.28,-1.94 5.28,-6.38 v -1.84 -1.05 -4.98 c 0,-4.74 -3.58,-6.42 -5.83,-6.42 -2.44,0 -4.48,1.75 -4.48,4.23 0,2.73 2.09,6.88 10.31,7.17 v 0 1.05 c -2.53,-0.14 -6.02,-0.3 -9.15,-1.8 -3.74,-1.69 -4.99,-4.28 -4.99,-6.47 0,-4.03 4.83,-5.28 7.97,-5.28 3.3,0 5.58,1.99 6.53,4.33 z"
           id="path1542"
           inkscape:connector-curvature="0"
           style="fill:#ff0000;fill-opacity:1;stroke-width:0" /><path
           d="m 810.30155,344.05883 v -13.36 c 0,-2.23 -0.55,-2.23 -3.89,-2.23 v -1.55 c 1.75,0.05 4.28,0.16 5.62,0.16 1.3,0 3.89,-0.11 5.58,-0.16 v 1.55 c -3.33,0 -3.87,0 -3.87,2.23 v 9.17 c 0,5.19 3.53,7.97 6.71,7.97 3.14,0 3.69,-2.69 3.69,-5.53 v -11.61 c 0,-2.23 -0.55,-2.23 -3.89,-2.23 v -1.55 c 1.75,0.05 4.3,0.16 5.64,0.16 1.3,0 3.88,-0.11 5.58,-0.16 v 1.55 c -2.59,0 -3.84,0 -3.89,1.5 v 9.51 c 0,4.28 0,5.83 -1.55,7.61 -0.68,0.86 -2.34,1.84 -5.22,1.84 -3.64,0 -5.98,-2.14 -7.37,-5.21 v 5.21 l -7.03,-0.54 v -1.55 c 3.48,0 3.89,-0.34 3.89,-2.78 z"
           id="path1544"
           inkscape:connector-curvature="0"
           style="fill:#ff0000;fill-opacity:1;stroke-width:0" /><path
           d="m 867.91155,329.64883 v -3.28 l 7.31,0.55 v 1.55 c -3.48,0 -3.87,0.34 -3.87,2.78 v 30.25 l -7.17,-0.55 v -1.55 c 3.48,0 3.87,-0.34 3.87,-2.79 v -10.75 c -1.43,1.78 -3.58,3.07 -6.28,3.07 l 0.2,-1.09 c 1.75,0 3.85,-0.75 5.4,-2.98 0.54,-0.85 0.54,-0.96 0.54,-1.85 v 0 -10.22 c 0,-0.89 0,-1 -0.54,-1.84 -1.5,-2.39 -3.75,-3.48 -5.9,-3.48 -2.23,0 -4.03,1.29 -5.22,3.18 -1.29,2.05 -1.45,4.89 -1.45,6.93 0,1.84 0.1,4.84 1.55,7.07 1.05,1.55 2.94,3.19 5.62,3.19 l -0.2,1.09 c -5.87,0 -11.11,-4.87 -11.11,-11.29 0,-6.33 4.89,-11.27 10.56,-11.27 3.19,0 5.44,1.69 6.69,3.28 z"
           id="path1546"
           inkscape:connector-curvature="0"
           style="fill:#ff0000;fill-opacity:1;stroke-width:0" /><path
           d="m 885.50155,348.92883 -6.96,-0.54 v -1.55 c 3.23,0 3.68,-0.3 3.68,-2.73 v -13.41 c 0,-2.23 -0.54,-2.23 -3.89,-2.23 v -1.55 c 1.6,0.05 4.29,0.16 5.49,0.16 1.75,0 3.48,-0.11 5.18,-0.16 v 1.55 c -3.29,0 -3.5,0.25 -3.5,2.18 z"
           id="path1548"
           inkscape:connector-curvature="0"
           style="fill:#ff0000;fill-opacity:1;stroke-width:0" /><path
           d="m 885.71155,357.60883 -0.01,0.14 -0.01,0.15 -0.01,0.14 -0.03,0.14 -0.03,0.13 -0.04,0.13 -0.04,0.13 -0.05,0.12 -0.05,0.12 -0.06,0.12 -0.07,0.11 -0.07,0.1 -0.08,0.1 -0.08,0.1 -0.08,0.1 -0.09,0.08 -0.09,0.09 -0.1,0.08 -0.1,0.07 -0.11,0.07 -0.1,0.07 -0.11,0.06 -0.12,0.05 -0.11,0.05 -0.12,0.04 -0.12,0.04 -0.12,0.03 -0.13,0.03 -0.13,0.02 -0.12,0.01 -0.13,0.01 -0.13,0.01 c -1.55,0 -2.64,-1.35 -2.64,-2.64 0,-1.35 1.09,-2.64 2.64,-2.64 1.39,0 2.64,1.04 2.64,2.64 z"
           id="path1550"
           inkscape:connector-curvature="0"
           style="fill:#ff0000;fill-opacity:1;stroke-width:0" /><path
           d="m 900.85155,336.58883 0.11,-0.02 0.13,-0.02 0.14,-0.03 0.16,-0.04 0.16,-0.04 0.18,-0.04 0.19,-0.05 0.2,-0.06 0.21,-0.06 0.21,-0.07 0.21,-0.08 0.22,-0.08 0.22,-0.1 0.22,-0.1 0.22,-0.11 0.22,-0.12 0.22,-0.14 0.21,-0.14 0.2,-0.15 0.2,-0.16 0.19,-0.18 0.18,-0.19 0.17,-0.2 0.16,-0.21 0.14,-0.22 0.07,-0.12 0.06,-0.12 0.06,-0.13 0.05,-0.12 0.05,-0.14 0.05,-0.13 0.04,-0.14 0.03,-0.14 0.03,-0.15 0.03,-0.15 0.02,-0.16 0.01,-0.15 0.01,-0.17 0.01,-0.16 c 0,-2.53 -1.75,-4.53 -5.63,-4.53 -4.19,0 -5.98,2.84 -6.94,7.07 -0.14,0.64 -0.18,0.85 -0.68,0.85 -0.66,0 -0.66,-0.35 -0.66,-1.25 v -6.58 c 0,-0.84 0,-1.19 0.55,-1.19 0.25,0 0.29,0.05 1.25,1 0.09,0.1 0.09,0.19 1,1.14 2.19,-2.09 4.44,-2.14 5.48,-2.14 5.72,0 8.02,3.35 8.02,6.92 0,2.64 -1.5,4.14 -2.1,4.74 -1.64,1.59 -3.59,2 -5.68,2.39 -2.78,0.55 -6.13,1.2 -6.13,4.09 0,1.74 1.3,3.78 5.58,3.78 5.48,0 5.73,-4.48 5.83,-6.03 0.06,-0.45 0.5,-0.45 0.61,-0.45 0.64,0 0.64,0.25 0.64,1.2 v 5.03 c 0,0.85 0,1.19 -0.55,1.19 -0.25,0 -0.34,0 -1,-0.59 -0.14,-0.21 -0.64,-0.64 -0.84,-0.8 -1.89,1.39 -3.94,1.39 -4.69,1.39 -6.08,0 -7.97,-3.33 -7.97,-6.12 0,-1.74 0.8,-3.14 2.14,-4.24 1.6,-1.29 3,-1.59 6.58,-2.28 z"
           id="path1552"
           inkscape:connector-curvature="0"
           style="fill:#ff0000;fill-opacity:1;stroke-width:0" /><path
           d="m 918.79155,346.83883 h 7.13 v 1.55 h -7.13 v 9.17 h -1.25 c -0.04,-4.08 -1.54,-9.42 -6.42,-9.61 v -1.11 h 4.24 v -13.75 c 0,-6.12 4.62,-6.72 6.42,-6.72 3.53,0 4.94,3.53 4.94,6.72 v 2.84 h -1.25 v -2.73 c 0,-3.69 -1.5,-5.58 -3.35,-5.58 -3.33,0 -3.33,4.53 -3.33,5.38 z"
           id="path1554"
           inkscape:connector-curvature="0"
           style="fill:#ff0000;fill-opacity:1;stroke-width:0" /><path
           d="m 937.80155,343.46883 v 5.46 l -6.92,-0.54 v -1.55 c 3.48,0 3.89,-0.34 3.89,-2.78 v -13.36 c 0,-2.23 -0.55,-2.23 -3.89,-2.23 v -1.55 c 1.95,0.05 4.28,0.16 5.68,0.16 1.99,0 4.33,0 6.33,-0.16 v 1.55 h -1.04 c -3.69,0 -3.8,0.54 -3.8,2.34 v 7.67 c 0,4.92 2.09,9.36 5.89,9.36 0.34,0 0.44,0 0.55,-0.05 -0.16,-0.04 -1.16,-0.64 -1.16,-1.93 0,-1.41 1.05,-2.14 2.16,-2.14 0.89,0 2.14,0.59 2.14,2.18 0,1.6 -1.55,3.03 -3.69,3.03 -3.64,0 -5.44,-3.32 -6.14,-5.46 z"
           id="path1556"
           inkscape:connector-curvature="0"
           style="fill:#ff0000;fill-opacity:1;stroke-width:0" /><path
           d="m 957.86155,348.92883 -6.97,-0.54 v -1.55 c 3.23,0 3.68,-0.3 3.68,-2.73 v -13.41 c 0,-2.23 -0.54,-2.23 -3.88,-2.23 v -1.55 c 1.59,0.05 4.28,0.16 5.48,0.16 1.75,0 3.48,-0.11 5.19,-0.16 v 1.55 c -3.3,0 -3.5,0.25 -3.5,2.18 z"
           id="path1558"
           inkscape:connector-curvature="0"
           style="fill:#ff0000;fill-opacity:1;stroke-width:0" /><path
           d="m 958.06155,357.60883 v 0.14 l -0.01,0.15 -0.02,0.14 -0.03,0.14 -0.03,0.13 -0.03,0.13 -0.05,0.13 -0.05,0.12 -0.05,0.12 -0.06,0.12 -0.07,0.11 -0.07,0.1 -0.07,0.1 -0.08,0.1 -0.09,0.1 -0.09,0.08 -0.09,0.09 -0.1,0.08 -0.1,0.07 -0.1,0.07 -0.11,0.07 -0.11,0.06 -0.12,0.05 -0.11,0.05 -0.12,0.04 -0.12,0.04 -0.12,0.03 -0.13,0.03 -0.12,0.02 -0.13,0.01 -0.13,0.01 -0.13,0.01 c -1.55,0 -2.64,-1.35 -2.64,-2.64 0,-1.35 1.09,-2.64 2.64,-2.64 1.39,0 2.64,1.04 2.64,2.64 z"
           id="path1560"
           inkscape:connector-curvature="0"
           style="fill:#ff0000;fill-opacity:1;stroke-width:0" /><path
           d="m 971.40155,345.69883 v 15.8 l -7.17,-0.55 v -1.55 c 3.49,0 3.89,-0.34 3.89,-2.79 v -29.69 h 1.25 c 0.05,0.05 0.44,0.75 1.78,3.09 0.75,-1.15 2.85,-3.64 6.52,-3.64 l -0.2,1.1 c -2.22,0 -4.02,1.2 -5.21,3.04 -0.7,1.05 -0.7,1.19 -0.7,2.08 v 0 10.27 c 0,0.95 0,1 0.55,1.79 1.93,2.8 4.68,3.19 5.86,3.19 2.3,0 4.1,-1.3 5.2,-3.19 1.3,-2.04 1.5,-4.87 1.5,-6.92 0,-1.84 -0.1,-4.83 -1.5,-7.08 -1.1,-1.54 -3,-3.18 -5.7,-3.18 l 0.2,-1.1 c 6,0 11.1,4.88 11.1,11.31 0,6.33 -4.8,11.25 -10.5,11.25 -3.91,0 -6.07,-2.34 -6.87,-3.23 z"
           id="path1562"
           inkscape:connector-curvature="0"
           style="fill:#ff0000;fill-opacity:1;stroke-width:0" /><path
           d="m 1010.0715,330.85883 v -4.49 l 7.1,0.55 v 1.55 c -3.4,0 -3.8,0.34 -3.8,2.78 v 17.68 l -7.4,-0.54 v -1.55 c 3.5,0 3.9,-0.34 3.9,-2.78 v -8.88 c 0,-4.32 -2.4,-7.71 -6,-7.71 -4.19995,0 -4.39995,2.34 -4.39995,4.93 v 16.53 l -7.3,-0.54 v -1.55 c 3.9,0 3.9,-0.14 3.9,-4.58 v -7.47 c 0,-3.89 0,-8.42 7.49995,-8.42 2.8,0 5,1.39 6.5,4.49 z"
           id="path1564"
           inkscape:connector-curvature="0"
           style="fill:#ff0000;fill-opacity:1;stroke-width:0" /><path
           d="m 1026.8715,346.83883 h 7.2 v 1.55 h -7.2 v 9.17 h -1.2 c -0.1,-4.08 -1.6,-9.42 -6.4,-9.61 v -1.11 h 4.2 v -13.75 c 0,-6.12 4.6,-6.72 6.4,-6.72 3.5,0 5,3.53 5,6.72 v 2.84 h -1.3 v -2.73 c 0,-3.69 -1.5,-5.58 -3.3,-5.58 -3.4,0 -3.4,4.53 -3.4,5.38 z"
           id="path1566"
           inkscape:connector-curvature="0"
           style="fill:#ff0000;fill-opacity:1;stroke-width:0" /><path
           d="m 1046.3715,348.92883 -6.9,-0.54 v -1.55 c 3.2,0 3.7,-0.3 3.7,-2.73 v -13.41 c 0,-2.23 -0.6,-2.23 -3.9,-2.23 v -1.55 c 1.6,0.05 4.3,0.16 5.5,0.16 1.7,0 3.4,-0.11 5.1,-0.16 v 1.55 c -3.3,0 -3.5,0.25 -3.5,2.18 z"
           id="path1568"
           inkscape:connector-curvature="0"
           style="fill:#ff0000;fill-opacity:1;stroke-width:0" /><path
           d="m 1046.5715,357.60883 v 0.14 0.15 0.14 0.14 0.13 l -0.1,0.13 v 0.13 l -0.1,0.12 v 0.12 l -0.1,0.12 -0.1,0.11 v 0.1 l -0.1,0.1 -0.1,0.1 -0.1,0.1 -0.1,0.08 -0.1,0.09 v 0.08 l -0.1,0.07 -0.2,0.07 -0.1,0.07 -0.1,0.06 -0.1,0.05 -0.1,0.05 -0.1,0.04 -0.1,0.04 -0.2,0.03 -0.1,0.03 -0.1,0.02 -0.1,0.01 -0.2,0.01 -0.1,0.01 c -1.6,0 -2.6,-1.35 -2.6,-2.64 0,-1.35 1,-2.64 2.6,-2.64 1.4,0 2.6,1.04 2.6,2.64 z"
           id="path1570"
           inkscape:connector-curvature="0"
           style="fill:#ff0000;fill-opacity:1;stroke-width:0" /><path
           d="m 1074.8715,337.57883 v 0.59 l -0.1,0.59 v 0.58 l -0.1,0.57 -0.2,0.56 -0.1,0.55 -0.2,0.54 -0.2,0.53 -0.2,0.51 -0.2,0.5 -0.3,0.49 -0.3,0.47 -0.3,0.46 -0.3,0.44 -0.4,0.43 -0.4,0.4 -0.3,0.39 -0.4,0.37 -0.5,0.35 -0.4,0.32 -0.4,0.31 -0.5,0.28 -0.5,0.26 -0.5,0.24 -0.5,0.21 -0.5,0.18 -0.5,0.16 -0.5,0.13 -0.6,0.11 -0.5,0.07 -0.6,0.05 -0.5,0.01 -0.1,-1.09 c 2.2,0 4.4,-1.1 5.6,-3.24 1.4,-2.14 1.4,-5.03 1.4,-6.92 0,-1.8 0,-4.48 -1.1,-6.67 -1.1,-2.25 -3.3,-3.69 -5.8,-3.69 v 0 c -2.2,0 -4.3,1.05 -5.7,3.33 -1.3,2.2 -1.3,5.23 -1.3,7.03 0,1.94 0,4.63 1.2,6.83 1.4,2.28 3.7,3.33 5.7,3.33 l 0.1,1.09 c -6.2,0 -11.1,-5.42 -11.1,-11.65 0,-6.43 5.2,-11.21 11,-11.21 6.1,0 11.1,4.88 11.1,11.21 z"
           id="path1572"
           inkscape:connector-curvature="0"
           style="fill:#ff0000;fill-opacity:1;stroke-width:0" /><path
           d="m 1081.8715,344.05883 v -13.36 c 0,-2.23 -0.6,-2.23 -3.9,-2.23 v -1.55 c 1.7,0.05 4.2,0.16 5.6,0.16 1.3,0 3.9,-0.11 5.6,-0.16 v 1.55 c -3.4,0 -3.9,0 -3.9,2.23 v 9.17 c 0,5.19 3.5,7.97 6.7,7.97 3.2,0 3.7,-2.69 3.7,-5.53 v -11.61 c 0,-2.23 -0.5,-2.23 -3.9,-2.23 v -1.55 c 1.8,0.05 4.3,0.16 5.7,0.16 1.3,0 3.8,-0.11 5.5,-0.16 v 1.55 c -2.6,0 -3.8,0 -3.9,1.5 v 9.51 c 0,4.28 0,5.83 -1.5,7.61 -0.7,0.86 -2.4,1.84 -5.2,1.84 -3.7,0 -6,-2.14 -7.4,-5.21 v 5.21 l -7,-0.54 v -1.55 c 3.5,0 3.9,-0.34 3.9,-2.78 z"
           id="path1574"
           inkscape:connector-curvature="0"
           style="fill:#ff0000;fill-opacity:1;stroke-width:0" /></g>    </g>
    <g
       id="g1810"
       transform="matrix(0.47168732,0,0,0.47168732,117.59353,240.00797)"
       style="fill:#00c800;fill-opacity:1">
      <g
         word-spacing="normal"
         letter-spacing="normal"
         font-size-adjust="none"
         font-stretch="normal"
         font-weight="normal"
         font-variant="normal"
         font-style="normal"
         stroke-miterlimit="10.433"
         xml:space="preserve"
         transform="matrix(0.3,0,0,-0.3,-52.5,222.75)"
         id="g1808"
         style="font-style:normal;font-variant:normal;font-weight:normal;font-stretch:normal;letter-spacing:normal;word-spacing:normal;text-anchor:start;fill:#00c800;fill-opacity:1;fill-rule:evenodd;stroke:#000000;stroke-linecap:butt;stroke-linejoin:miter;stroke-miterlimit:10.43299961;stroke-dasharray:none;stroke-dashoffset:0;stroke-opacity:1"><path
           id="path1758"
           d="m 549.29767,442.98913 -0.0128,0.75632 -0.0513,0.75632 -0.0897,0.7435 -0.12819,0.73068 -0.16665,0.71786 -0.19228,0.70505 -0.21792,0.69222 -0.25638,0.67941 -0.28202,0.65376 -0.32047,0.64095 -0.3333,0.62813 -0.37175,0.60249 -0.39738,0.58967 -0.42303,0.56404 -0.44866,0.55121 -0.46149,0.51276 -0.49994,0.49994 -0.51275,0.4743 -0.52558,0.44867 -0.56404,0.41021 -0.56403,0.39738 -0.58967,0.35893 -0.61531,0.3333 -0.62813,0.30765 -0.64095,0.2692 -0.65377,0.23074 -0.66658,0.20511 -0.67941,0.16664 -0.69222,0.14101 -0.69223,0.0897 -0.71786,0.0641 -0.71786,0.0128 -0.0641,-1.39727 c 2.80736,0 5.55061,-1.41009 7.21708,-4.15334 1.65365,-2.74326 1.65365,-6.44794 1.65365,-8.87073 0,-2.30741 0,-5.74289 -1.39727,-8.55025 -1.39727,-2.88426 -4.20462,-4.73019 -7.40936,-4.73019 v 0 c -2.74326,0 -5.55061,1.34599 -7.26835,4.26871 -1.60237,2.82017 -1.60237,6.70432 -1.60237,9.01173 0,2.48688 0,5.93518 1.51263,8.75535 1.74338,2.92273 4.7302,4.26872 7.29399,4.26872 l 0.0641,1.39727 c -7.9734,0 -14.17778,-6.94788 -14.17778,-14.9341 0,-8.24259 6.64023,-14.37005 14.11368,-14.37005 7.72984,0 14.17778,6.25565 14.17778,14.37005 z"
           inkscape:connector-curvature="0"
           style="fill:#00c800;fill-opacity:1;stroke-width:0" /><path
           id="path1760"
           d="m 588.90827,450.77024 0.10255,0.29484 0.11537,0.28202 0.12819,0.2692 0.11537,0.25638 0.12819,0.23074 0.14101,0.23074 0.12819,0.21792 0.141,0.2051 0.15383,0.19229 0.14101,0.17946 0.15383,0.16665 0.15383,0.16665 0.16664,0.14101 0.16665,0.141 0.16665,0.12819 0.16664,0.12819 0.17947,0.10256 0.16664,0.10255 0.17947,0.10255 0.19228,0.0769 0.17947,0.0769 0.19228,0.0641 0.19229,0.0641 0.19228,0.0513 0.19229,0.0513 0.2051,0.0385 0.19229,0.0385 0.2051,0.0256 0.2051,0.0256 0.20511,0.0128 0.2051,0.0128 0.21792,0.0128 v 1.98694 c -1.4229,-0.12819 -3.26883,-0.17946 -4.6661,-0.17946 -1.87157,0 -4.7302,0.11537 -5.96082,0.17946 v -1.98694 c 2.30741,-0.0641 3.7175,-1.20498 3.7175,-3.06373 0,-0.38457 0,-0.49994 -0.32047,-1.34599 l -5.81981,-16.34418 -6.31975,17.83118 c -0.24356,0.75632 -0.32048,0.88451 -0.32048,1.20498 0,1.71774 2.4997,1.71774 3.7816,1.71774 v 1.98694 c -1.85875,-0.0641 -5.10195,-0.17946 -6.65304,-0.17946 -1.92285,0 -3.76878,0.0513 -5.69162,0.17946 v -1.98694 c 2.3715,0 3.39702,-0.11537 4.03797,-0.93578 0.32047,-0.41021 1.0127,-2.30741 1.46136,-3.52521 l -5.49933,-15.44686 -6.06337,17.04923 c -0.32048,0.75631 -0.32048,0.89732 -0.32048,1.14088 0,1.71774 2.4997,1.71774 3.76878,1.71774 v 1.98694 c -1.91003,-0.0641 -5.48652,-0.17946 -6.94788,-0.17946 -0.2692,0 -3.65341,0.0513 -5.948,0.17946 v -1.98694 c 3.20474,0 3.96106,-0.17946 4.71738,-2.21768 l 8.05031,-22.61265 c 0.32047,-0.91014 0.52557,-1.41008 1.34599,-1.41008 0.84605,0 0.96142,0.38456 1.28189,1.28189 l 6.44794,18.07474 6.51204,-18.12601 c 0.25638,-0.73068 0.43584,-1.23062 1.28189,-1.23062 0.82042,0 1.02552,0.58967 1.2819,1.23062 z"
           inkscape:connector-curvature="0"
           style="fill:#00c800;fill-opacity:1;stroke-width:0" /><path
           id="path1762"
           d="m 600.76581,444.07875 0.0513,1.34599 c 0.38457,9.51167 5.75572,11.10122 7.93494,11.10122 6.56331,0 7.20426,-8.61434 7.20426,-11.10122 h -15.1392 l -0.0513,-1.34599 h 17.81836 c 1.41008,0 1.57673,0 1.57673,1.34599 0,6.30693 -3.43548,12.49849 -11.40888,12.49849 -7.40936,0 -13.30608,-6.56331 -13.30608,-14.56235 0,-8.55024 6.71713,-14.7418 14.0624,-14.7418 7.79393,0 10.65256,7.08888 10.65256,8.29387 0,0.64094 -0.48712,0.78195 -0.8076,0.78195 -0.58967,0 -0.70504,-0.38457 -0.84605,-0.89733 -2.2305,-6.57612 -7.97339,-6.57612 -8.61434,-6.57612 -3.20474,0 -5.75572,1.91002 -7.20426,4.26871 -1.92284,3.06373 -1.92284,7.29399 -1.92284,9.58859 z"
           inkscape:connector-curvature="0"
           style="fill:#00c800;fill-opacity:1;stroke-width:0" /><path
           id="path1764"
           d="m 632.62093,450.5395 v 6.99916 l -8.87072,-0.69223 v -1.98694 c 4.47382,0 4.98658,-0.43584 4.98658,-3.56367 v -17.12613 c 0,-2.85863 -0.69223,-2.85863 -4.98658,-2.85863 v -1.98694 c 2.4997,0.0641 5.48652,0.2051 7.29399,0.2051 2.53815,0 5.55061,0 8.1144,-0.2051 v 1.98694 h -1.34599 c -4.7302,0 -4.8712,0.69222 -4.8712,2.99964 v 9.83214 c 0,6.30693 2.69198,11.99855 7.56318,11.99855 0.43585,0 0.55122,0 0.69223,-0.0641 -0.2051,-0.0513 -1.487,-0.82042 -1.487,-2.47406 0,-1.80748 1.34599,-2.74326 2.7689,-2.74326 1.14088,0 2.74325,0.75632 2.74325,2.79453 0,2.05104 -1.98694,3.88415 -4.71738,3.88415 -4.67892,0 -6.97351,-4.2559 -7.88366,-6.99916 z"
           inkscape:connector-curvature="0"
           style="fill:#00c800;fill-opacity:1;stroke-width:0" /><path
           id="path1766"
           d="m 681.70474,441.72006 0.14101,-0.0256 0.16665,-0.0256 0.17946,-0.0385 0.20511,-0.0513 0.2051,-0.0513 0.23074,-0.0513 0.24356,-0.0641 0.25638,-0.0769 0.2692,-0.0769 0.2692,-0.0897 0.2692,-0.10255 0.28201,-0.10255 0.28202,-0.12819 0.28202,-0.12819 0.28202,-0.14101 0.28201,-0.15383 0.28202,-0.17946 0.2692,-0.17947 0.2692,-0.19228 0.24356,-0.20511 0.24356,-0.23074 0.23074,-0.24356 0.21792,-0.25638 0.2051,-0.2692 0.17947,-0.28201 0.0897,-0.15383 0.0769,-0.15383 0.0769,-0.16664 0.0641,-0.15383 0.0641,-0.17947 0.0641,-0.16664 0.0513,-0.17947 0.0385,-0.17947 0.0513,-0.19228 0.0256,-0.19228 0.0256,-0.20511 0.0256,-0.19228 v -0.21792 l 0.0128,-0.20511 c 0,-3.2432 -2.24332,-5.80699 -7.21708,-5.80699 -5.37115,0 -7.66574,3.64059 -8.89636,9.06301 -0.17947,0.82041 -0.23074,1.08961 -0.87169,1.08961 -0.84605,0 -0.84605,-0.44866 -0.84605,-1.60237 v -8.43488 c 0,-1.07679 0,-1.52545 0.70504,-1.52545 0.32047,0 0.37175,0.0641 1.60237,1.28189 0.11537,0.12819 0.11537,0.24356 1.2819,1.46136 2.79453,-2.67916 5.6788,-2.74325 7.02479,-2.74325 7.33245,0 10.28081,4.29435 10.28081,8.87072 0,3.3842 -1.92285,5.30705 -2.69198,6.07619 -2.10231,2.03821 -4.60201,2.56379 -7.28118,3.06373 -3.57649,0.70504 -7.85802,1.53828 -7.85802,5.24296 0,2.2305 1.66647,4.84556 7.15298,4.84556 7.02479,0 7.34527,-5.74289 7.47346,-7.72983 0.0769,-0.57685 0.64095,-0.57685 0.78195,-0.57685 0.82042,0 0.82042,0.32047 0.82042,1.53827 v 6.44794 c 0,1.08961 0,1.52546 -0.70504,1.52546 -0.32048,0 -0.43585,0 -1.2819,-0.75632 -0.17947,-0.2692 -0.82041,-0.82042 -1.07679,-1.02552 -2.42279,1.78184 -5.05068,1.78184 -6.0121,1.78184 -7.79393,0 -10.21671,-4.26872 -10.21671,-7.84521 0,-2.2305 1.02551,-4.02515 2.74326,-5.43524 2.03821,-1.65365 3.84569,-2.03821 8.43487,-2.92272 z"
           inkscape:connector-curvature="0"
           style="fill:#00c800;fill-opacity:1;stroke-width:0" /><path
           id="path1768"
           d="m 704.62505,453.33404 v 4.20462 l -9.1912,-0.69223 v -1.98694 c 4.55074,0 4.98658,-0.38456 4.98658,-3.1791 v -29.89382 c 0,-2.88427 -0.70504,-2.88427 -4.98658,-2.88427 v -1.97412 c 2.17923,0.0769 5.48652,0.19229 7.15299,0.19229 1.71774,0 4.98657,-0.11538 7.22989,-0.19229 v 1.97412 c -4.28153,0 -4.98658,0 -4.98658,2.88427 v 10.71665 0.58967 l 0.89733,0.83324 c -0.89733,1.34599 -0.89733,1.41008 -0.89733,2.66634 v 0 14.26751 c 1.84594,3.2432 4.98658,5.10195 8.22978,5.10195 4.6661,0 8.57589,-5.62753 8.57589,-12.84461 0,-7.72983 -4.48664,-13.08816 -9.21684,-13.08816 -2.53815,0 -4.96094,1.2819 -6.6915,3.89697 l -0.89733,-0.83324 c 0.32048,-1.02551 2.99964,-4.47381 7.84521,-4.47381 7.61447,0 14.24187,6.25565 14.24187,14.49824 0,8.11441 -6.19156,14.42134 -13.33172,14.42134 -4.98658,0 -7.67856,-2.79454 -8.96046,-4.20462 z"
           inkscape:connector-curvature="0"
           style="fill:#00c800;fill-opacity:1;stroke-width:0" /><path
           id="path1770"
           d="m 738.121,444.07875 0.0641,1.34599 c 0.38457,9.51167 5.74289,11.10122 7.92212,11.10122 6.57613,0 7.21707,-8.61434 7.21707,-11.10122 H 738.1851 l -0.0641,-1.34599 h 17.83118 c 1.39727,0 1.57674,0 1.57674,1.34599 0,6.30693 -3.44831,12.49849 -11.4217,12.49849 -7.40936,0 -13.29327,-6.56331 -13.29327,-14.56235 0,-8.55024 6.71714,-14.7418 14.06241,-14.7418 7.79393,0 10.65256,7.08888 10.65256,8.29387 0,0.64094 -0.49994,0.78195 -0.82042,0.78195 -0.57685,0 -0.70504,-0.38457 -0.83323,-0.89733 -2.2305,-6.57612 -7.9734,-6.57612 -8.61434,-6.57612 -3.20475,0 -5.75572,1.91002 -7.21708,4.26871 -1.92285,3.06373 -1.92285,7.29399 -1.92285,9.58859 z"
           inkscape:connector-curvature="0"
           style="fill:#00c800;fill-opacity:1;stroke-width:0" /><path
           id="path1772"
           d="m 766.80984,443.24551 v 0.48712 l 0.0128,0.46149 0.0128,0.46148 0.0256,0.44866 0.0385,0.43585 0.0385,0.43584 0.0513,0.41021 0.0513,0.41021 0.0513,0.39738 0.0641,0.38457 0.0769,0.37175 0.0769,0.37175 0.17947,0.70505 0.19228,0.65376 0.20511,0.62813 0.24356,0.58967 0.24356,0.55122 0.2692,0.51276 0.28201,0.48712 0.29484,0.44866 0.30766,0.41021 0.32047,0.38457 0.33329,0.35893 0.3333,0.33329 0.34611,0.29484 0.35893,0.2692 0.35893,0.24356 0.35893,0.2051 0.35893,0.19229 0.35893,0.16664 0.37175,0.15383 0.35893,0.11537 0.35893,0.10255 0.34612,0.0769 0.34611,0.0641 0.34611,0.0385 0.33329,0.0256 0.32048,0.0128 c 0.56403,0 4.58919,-0.0641 6.83251,-2.3715 -2.62789,-0.19229 -2.99964,-2.10231 -2.99964,-2.93555 0,-1.66646 1.12807,-2.94836 2.93554,-2.94836 1.64083,0 2.92272,1.10243 2.92272,2.99964 0,4.34563 -4.84556,6.83251 -9.76805,6.83251 -7.97339,0 -13.87012,-6.88379 -13.87012,-14.80591 0,-8.16568 6.33257,-14.49824 13.74193,-14.49824 8.56307,0 10.60129,7.67855 10.60129,8.29387 0,0.64094 -0.64095,0.64094 -0.82042,0.64094 -0.57685,0 -0.70504,-0.24356 -0.84605,-0.64094 -1.84593,-5.92237 -5.98645,-6.6915 -8.34514,-6.6915 -3.38421,0 -9.01174,2.74325 -9.01174,13.02406 z"
           inkscape:connector-curvature="0"
           style="fill:#00c800;fill-opacity:1;stroke-width:0" /><path
           id="path1774"
           d="m 798.69061,454.85949 h 9.13992 v 1.98694 h -9.13992 v 11.75499 h -1.60237 c -0.0641,-5.23013 -1.98694,-12.07546 -8.22978,-12.31902 v -1.42291 h 5.42242 v -17.62607 c 0,-7.84521 5.93518,-8.61434 8.22978,-8.61434 4.53791,0 6.33257,4.52509 6.33257,8.61434 v 3.64058 h -1.60237 v -3.49957 c 0,-4.7302 -1.92285,-7.15298 -4.28154,-7.15298 -4.26871,0 -4.26871,5.80699 -4.26871,6.8966 z"
           inkscape:connector-curvature="0"
           style="fill:#00c800;fill-opacity:1;stroke-width:0" /><path
           id="path1776"
           d="m 823.04664,450.5395 v 6.99916 l -8.87072,-0.69223 v -1.98694 c 4.47381,0 4.98657,-0.43584 4.98657,-3.56367 v -17.12613 c 0,-2.85863 -0.69222,-2.85863 -4.98657,-2.85863 v -1.98694 c 2.51251,0.0641 5.48651,0.2051 7.29399,0.2051 2.53815,0 5.55061,0 8.1144,-0.2051 v 1.98694 h -1.34599 c -4.7302,0 -4.87121,0.69222 -4.87121,2.99964 v 9.83214 c 0,6.30693 2.69199,11.99855 7.56319,11.99855 0.43585,0 0.55122,0 0.69223,-0.0641 -0.19229,-0.0513 -1.47419,-0.82042 -1.47419,-2.47406 0,-1.80748 1.33318,-2.74326 2.75608,-2.74326 1.14089,0 2.74326,0.75632 2.74326,2.79453 0,2.05104 -1.97412,3.88415 -4.71738,3.88415 -4.67892,0 -6.97351,-4.2559 -7.88366,-6.99916 z"
           inkscape:connector-curvature="0"
           style="fill:#00c800;fill-opacity:1;stroke-width:0" /><path
           id="path1778"
           d="m 858.74745,434.16969 0.0256,-0.24356 0.0385,-0.23074 0.0385,-0.24357 0.0513,-0.23074 0.0641,-0.24356 0.0769,-0.23074 0.0769,-0.23074 0.0897,-0.23074 0.0897,-0.23074 0.11537,-0.21792 0.10255,-0.23075 0.12819,-0.2051 0.12819,-0.2051 0.12819,-0.20511 0.15383,-0.2051 0.15382,-0.17947 0.15383,-0.17946 0.16665,-0.17947 0.17946,-0.16664 0.19229,-0.15383 0.19228,-0.15383 0.19229,-0.12819 0.21792,-0.12819 0.21798,-0.11537 0.2179,-0.10255 0.2307,-0.0897 0.2436,-0.0769 0.2435,-0.0641 0.2564,-0.0513 0.2692,-0.0384 0.2692,-0.0256 0.2692,-0.0128 c 1.3332,0 5.23023,0.91015 5.23023,6.07619 v 3.56367 h -1.6024 v -3.56367 c 0,-3.70468 -1.5767,-4.08925 -2.29463,-4.08925 -2.1023,0 -2.3715,2.85863 -2.3715,3.1791 v 12.78051 c 0,2.69198 0,5.16604 -2.28181,7.53755 -2.4997,2.47406 -5.69162,3.49958 -8.75535,3.49958 -5.24296,0 -9.65268,-2.98682 -9.65268,-7.20426 0,-1.91003 1.28189,-3.01246 2.94836,-3.01246 1.78183,0 2.94836,1.2819 2.94836,2.94836 0,0.75632 -0.32047,2.85863 -3.26884,2.94837 1.71775,2.21768 4.84557,2.92272 6.88379,2.92272 3.15346,0 6.76841,-2.48688 6.76841,-8.1785 v -2.35869 -1.34599 -6.38384 c 0,-6.07619 -4.57637,-8.22978 -7.46064,-8.22978 -3.12782,0 -5.75571,2.24332 -5.75571,5.42242 0,3.49958 2.69198,8.81945 13.21635,9.1912 v 0 1.34599 c -3.2432,-0.17946 -7.7042,-0.38457 -11.72935,-2.30741 -4.78147,-2.16641 -6.38384,-5.48652 -6.38384,-8.29387 0,-5.16604 6.17874,-6.76841 10.20389,-6.76841 4.23026,0 7.15298,2.55097 8.3836,5.55061 z"
           inkscape:connector-curvature="0"
           style="fill:#00c800;fill-opacity:1;stroke-width:0" /><path
           id="path1780"
           d="m 880.75774,473.6521 -9.19129,-0.70505 v -1.98694 c 4.46103,0 4.98663,-0.43584 4.98663,-3.57649 v -33.21393 c 0,-2.85863 -0.705,-2.85863 -4.98663,-2.85863 v -1.98694 c 2.10233,0.0641 5.48656,0.2051 7.08896,0.2051 1.6024,0 4.73023,-0.14101 7.08896,-0.2051 v 1.98694 c -4.28153,0 -4.98663,0 -4.98663,2.85863 z"
           inkscape:connector-curvature="0"
           style="fill:#00c800;fill-opacity:1;stroke-width:0" /><path
           id="path1782"
           d="m 932.64933,432.8237 v -4.20462 l 9.37079,0.70504 v 1.98694 c -4.46103,0 -4.96103,0.43584 -4.96103,3.56367 v 38.77737 l -9.19129,-0.70505 v -1.98694 c 4.46103,0 4.96106,-0.43584 4.96106,-3.57649 v -13.78038 c -1.84603,2.28177 -4.58926,3.93542 -8.05049,3.93542 l 0.2564,-1.39727 c 2.24333,0 4.93536,-0.96142 6.90946,-3.82005 0.7051,-1.08961 0.7051,-1.23062 0.7051,-2.37151 v 0 -13.10098 c 0,-1.14089 0,-1.2819 -0.7051,-2.35869 -1.9228,-3.06373 -4.80713,-4.461 -7.55036,-4.461 -2.8587,0 -5.16613,1.65365 -6.67876,4.07643 -1.6665,2.62789 -1.8716,6.26848 -1.8716,8.88354 0,2.35869 0.1154,6.20438 1.98703,9.06301 1.3331,1.98694 3.76873,4.08925 7.20423,4.08925 l -0.2564,1.39727 c -7.53756,0 -14.24189,-6.24284 -14.24189,-14.47261 0,-8.11441 6.26843,-14.44697 13.53689,-14.44697 4.08933,0 6.97356,2.1664 8.57596,4.20462 z"
           inkscape:connector-curvature="0"
           style="fill:#00c800;fill-opacity:1;stroke-width:0" /><path
           id="path1784"
           d="m 950.99338,444.07875 0.064,1.34599 c 0.38463,9.51167 5.75576,11.10122 7.93509,11.10122 6.56333,0 7.20423,-8.61434 7.20423,-11.10122 h -15.13932 l -0.064,-1.34599 h 17.83135 c 1.39733,0 1.57673,0 1.57673,1.34599 0,6.30693 -3.43543,12.49849 -11.40889,12.49849 -7.40946,0 -13.30622,-6.56331 -13.30622,-14.56235 0,-8.55024 6.71716,-14.7418 14.06252,-14.7418 7.79396,0 10.65259,7.08888 10.65259,8.29387 0,0.64094 -0.49993,0.78195 -0.82043,0.78195 -0.5768,0 -0.6922,-0.38457 -0.8332,-0.89733 -2.2305,-6.57612 -7.97346,-6.57612 -8.61446,-6.57612 -3.20473,0 -5.75576,1.91002 -7.21706,4.26871 -1.92293,3.06373 -1.92293,7.29399 -1.92293,9.58859 z"
           inkscape:connector-curvature="0"
           style="fill:#00c800;fill-opacity:1;stroke-width:0" /><path
           id="path1786"
           d="m 979.24662,451.29582 v -17.12613 c 0,-2.85863 -0.705,-2.85863 -4.99943,-2.85863 v -1.98694 c 2.2433,0.0641 5.48653,0.2051 7.21716,0.2051 1.6665,0 4.98663,-0.14101 7.15303,-0.2051 v 1.98694 c -4.26873,0 -4.97383,0 -4.97383,2.85863 v 11.75499 c 0,6.65304 4.52513,10.21671 8.61446,10.21671 4.02516,0 4.73026,-3.4483 4.73026,-7.08889 v -14.88281 c 0,-2.85863 -0.7051,-2.85863 -4.98666,-2.85863 v -1.98694 c 2.24333,0.0641 5.51216,0.2051 7.22996,0.2051 1.65363,0 4.96093,-0.14101 7.15303,-0.2051 v 1.98694 c -3.333,0 -4.9353,0 -4.9866,1.92284 v 12.19084 c 0,5.48651 0,7.47345 -1.98693,9.75523 -0.8846,1.10243 -3.0125,2.35869 -6.69153,2.35869 -4.66616,0 -7.66586,-2.74326 -9.46049,-6.67868 v 6.67868 l -9.01186,-0.69223 v -1.98694 c 4.47383,0 4.99943,-0.43584 4.99943,-3.56367 z"
           inkscape:connector-curvature="0"
           style="fill:#00c800;fill-opacity:1;stroke-width:0" /><path
           id="path1788"
           d="m 1021.0238,441.72006 0.141,-0.0256 0.1667,-0.0256 0.1794,-0.0385 0.1923,-0.0513 0.218,-0.0513 0.2307,-0.0513 0.2436,-0.0641 0.2563,-0.0769 0.2692,-0.0769 0.2692,-0.0897 0.2692,-0.10255 0.282,-0.10255 0.2821,-0.12819 0.282,-0.12819 0.282,-0.14101 0.282,-0.15383 0.282,-0.17946 0.2692,-0.17947 0.2564,-0.19228 0.2564,-0.20511 0.2435,-0.23074 0.2308,-0.24356 0.2179,-0.25638 0.2051,-0.2692 0.1795,-0.28201 0.09,-0.15383 0.077,-0.15383 0.077,-0.16664 0.064,-0.15383 0.064,-0.17947 0.064,-0.16664 0.051,-0.17947 0.039,-0.17947 0.038,-0.19228 0.039,-0.19228 0.026,-0.20511 0.013,-0.19228 0.013,-0.21792 0.013,-0.20511 c 0,-3.2432 -2.2434,-5.80699 -7.2171,-5.80699 -5.3712,0 -7.6657,3.64059 -8.8964,9.06301 -0.1794,0.82041 -0.2307,1.08961 -0.8717,1.08961 -0.846,0 -0.846,-0.44866 -0.846,-1.60237 v -8.43488 c 0,-1.07679 0,-1.52545 0.705,-1.52545 0.3205,0 0.3718,0.0641 1.6024,1.28189 0.1154,0.12819 0.1154,0.24356 1.2819,1.46136 2.7945,-2.67916 5.6788,-2.74325 7.0248,-2.74325 7.3324,0 10.2808,4.29435 10.2808,8.87072 0,3.3842 -1.9228,5.30705 -2.692,6.07619 -2.1023,2.03821 -4.602,2.56379 -7.294,3.06373 -3.5636,0.70504 -7.8452,1.53828 -7.8452,5.24296 0,2.2305 1.6665,4.84556 7.153,4.84556 7.0248,0 7.3453,-5.74289 7.4735,-7.72983 0.077,-0.57685 0.6409,-0.57685 0.7819,-0.57685 0.8204,0 0.8204,0.32047 0.8204,1.53827 v 6.44794 c 0,1.08961 0,1.52546 -0.705,1.52546 -0.3205,0 -0.4359,0 -1.2819,-0.75632 -0.1795,-0.2692 -0.8204,-0.82042 -1.0768,-1.02552 -2.4356,1.78184 -5.0507,1.78184 -6.0121,1.78184 -7.7939,0 -10.2167,-4.26872 -10.2167,-7.84521 0,-2.2305 1.0255,-4.02515 2.7432,-5.43524 2.0383,-1.65365 3.8457,-2.03821 8.4349,-2.92272 z"
           inkscape:connector-curvature="0"
           style="fill:#00c800;fill-opacity:1;stroke-width:0" /><path
           id="path1790"
           d="m 1044.2646,457.53866 -8.9348,-0.69223 v -1.98694 c 4.1533,0 4.7302,-0.38456 4.7302,-3.49957 v -17.19023 c 0,-2.85863 -0.7051,-2.85863 -4.9866,-2.85863 v -1.98694 c 2.0382,0.0641 5.4865,0.2051 7.0248,0.2051 2.2433,0 4.4738,-0.14101 6.653,-0.2051 v 1.98694 c -4.2302,0 -4.4866,0.32047 -4.4866,2.79453 z"
           inkscape:connector-curvature="0"
           style="fill:#00c800;fill-opacity:1;stroke-width:0" /><path
           id="path1792"
           d="m 1044.521,468.66552 v 0.17946 l -0.013,0.19229 -0.026,0.17946 -0.026,0.17947 -0.039,0.16665 -0.051,0.16664 -0.051,0.16665 -0.064,0.15383 -0.077,0.15382 -0.077,0.15383 -0.077,0.14101 -0.09,0.12819 -0.1025,0.12819 -0.1026,0.12819 -0.1154,0.12819 -0.1025,0.10255 -0.1282,0.11537 -0.1154,0.10255 -0.141,0.0897 -0.1282,0.0897 -0.141,0.0897 -0.141,0.0769 -0.141,0.0641 -0.1538,0.0641 -0.1539,0.0513 -0.1538,0.0513 -0.1538,0.0385 -0.1538,0.0385 -0.1667,0.0256 -0.1666,0.0128 -0.1667,0.0128 -0.1666,0.0128 c -1.9741,0 -3.3842,-1.73056 -3.3842,-3.3842 0,-1.73056 1.4101,-3.38421 3.3842,-3.38421 1.7818,0 3.3842,1.33317 3.3842,3.38421 z"
           inkscape:connector-curvature="0"
           style="fill:#00c800;fill-opacity:1;stroke-width:0" /><path
           id="path1794"
           d="m 1061.7112,454.85949 h 9.1271 v 1.98694 h -9.1271 v 11.75499 h -1.6024 c -0.064,-5.23013 -1.9869,-12.07546 -8.2297,-12.31902 v -1.42291 h 5.4224 v -17.62607 c 0,-7.84521 5.9352,-8.61434 8.2426,-8.61434 4.5251,0 6.3197,4.52509 6.3197,8.61434 v 3.64058 h -1.6023 v -3.49957 c 0,-4.7302 -1.9229,-7.15298 -4.2816,-7.15298 -4.2687,0 -4.2687,5.80699 -4.2687,6.8966 z"
           inkscape:connector-curvature="0"
           style="fill:#00c800;fill-opacity:1;stroke-width:0" /><path
           id="path1796"
           d="m 1100.0784,450.77024 0.077,0.19229 0.077,0.17946 0.09,0.17947 0.077,0.16665 0.09,0.15382 0.09,0.16665 0.09,0.15383 0.1026,0.14101 0.1795,0.28201 0.2051,0.25638 0.2051,0.24356 0.2051,0.23075 0.2051,0.2051 0.2179,0.17946 0.2051,0.17947 0.2179,0.15383 0.2179,0.14101 0.218,0.12819 0.2179,0.11537 0.2179,0.11537 0.2179,0.0897 0.218,0.0769 0.2051,0.0641 0.2051,0.0641 0.2051,0.0513 0.1923,0.0385 0.1922,0.0385 0.1795,0.0256 0.1667,0.0256 0.1666,0.0256 0.1666,0.0128 h 0.1411 l 0.141,0.0128 h 0.1282 0.1153 0.1026 v 1.98694 c -1.487,-0.12819 -3.333,-0.17946 -4.7943,-0.17946 -1.1537,0 -4.1662,0.11537 -5.5634,0.17946 v -1.98694 c 1.9869,-0.0641 2.9996,-1.14088 2.9996,-2.74325 0,-0.64095 -0.051,-0.75632 -0.3718,-1.52546 l -6.4607,-15.71605 -7.0889,17.17741 c -0.2564,0.64095 -0.3718,0.91015 -0.3718,1.16653 0,1.64082 2.3587,1.64082 3.5637,1.64082 v 1.98694 c -1.6408,-0.0641 -5.8711,-0.17946 -6.9479,-0.17946 -1.7305,0 -4.2943,0.0513 -6.1915,0.17946 v -1.98694 c 3.0637,0 4.2687,0 5.166,-2.21768 l 9.5758,-23.31769 c -0.3205,-0.82042 -1.205,-2.94836 -1.6024,-3.76878 -1.4101,-3.49957 -3.1919,-7.93494 -7.2683,-7.93494 -0.3205,0 -1.7947,0 -3.0125,1.16653 1.9869,0.25638 2.4869,1.66647 2.4869,2.67916 0,1.66647 -1.205,2.69199 -2.6664,2.69199 -1.2819,0 -2.6791,-0.84606 -2.6791,-2.74326 0,-2.88427 2.6791,-5.19168 5.8711,-5.19168 4.0251,0 6.6402,3.64058 8.1656,7.29399 z"
           inkscape:connector-curvature="0"
           style="fill:#00c800;fill-opacity:1;stroke-width:0" /><path
           id="path1798"
           d="m 1149.7775,414.00546 v 0.0256 l -0.013,0.0385 v 0.0128 0.0256 0.0128 l -0.013,0.0256 v 0.0128 l -0.013,0.0256 -0.013,0.0256 -0.013,0.0256 -0.013,0.0256 -0.013,0.0385 -0.026,0.0256 -0.026,0.0385 -0.026,0.0385 -0.026,0.0385 -0.038,0.0385 -0.039,0.0513 -0.026,0.0256 -0.013,0.0256 -0.026,0.0256 -0.026,0.0256 -0.026,0.0256 -0.026,0.0385 -0.026,0.0256 -0.026,0.0256 -0.026,0.0385 -0.039,0.0256 -0.026,0.0385 -0.039,0.0385 -0.026,0.0385 -0.038,0.0385 -0.038,0.0385 -0.038,0.0384 -0.038,0.0385 -0.038,0.0385 -0.051,0.0513 -0.038,0.0385 -0.039,0.0513 -0.051,0.0385 -0.051,0.0513 -0.051,0.0513 c -7.9734,8.05031 -10.0116,20.11296 -10.0116,29.88101 0,11.11404 2.4228,22.2409 10.268,30.20148 0.8332,0.78195 0.8332,0.91014 0.8332,1.10243 0,0.44866 -0.2436,0.62813 -0.6281,0.62813 -0.641,0 -6.3839,-4.33281 -10.1527,-12.4344 -3.2688,-7.03761 -4.0251,-14.1265 -4.0251,-19.49764 0,-4.98658 0.705,-12.69078 4.2046,-19.92067 3.8329,-7.85803 9.3322,-11.99855 9.9732,-11.99855 0.3845,0 0.6281,0.17946 0.6281,0.64095 z"
           inkscape:connector-curvature="0"
           style="fill:#00c800;fill-opacity:1;stroke-width:0" /><path
           id="path1800"
           d="m 1167.9035,449.51399 -0.2051,1.64082 v 17.24151 c 0,2.12795 0.141,2.56379 3.1278,2.56379 h 5.7045 c 10.127,0 10.127,-6.76841 10.127,-9.89624 0,-2.99963 0,-9.90906 -10.127,-9.90906 h -8.8323 l 0.2051,-1.64082 h 10.8064 c 7.6914,0 14.4854,5.16604 14.4854,11.54988 0,6.25566 -6.2813,11.88318 -14.9982,11.88318 h -22.5485 v -1.98694 h 1.5254 c 4.9225,0 5.0379,-0.69222 5.0379,-2.99963 V 434.3107 c 0,-2.30742 -0.1154,-2.99964 -5.0379,-2.99964 h -1.5254 v -1.98694 c 2.2177,0.2051 6.9479,0.2051 9.3706,0.2051 2.4228,0 7.2299,0 9.4604,-0.2051 v 1.98694 h -1.5254 c -4.9353,0 -5.0507,0.69222 -5.0507,2.99964 z"
           inkscape:connector-curvature="0"
           style="fill:#00c800;fill-opacity:1;stroke-width:0" /><path
           id="path1802"
           d="m 1219.2178,454.10318 -8.2041,1.97412 c -3.9739,0.96142 -6.4095,4.40972 -6.4095,8.1144 0,4.47382 3.4611,8.37078 8.4605,8.37078 10.6398,0 12.0498,-10.47309 12.4344,-13.35736 0,-0.38457 0,-0.75632 0.7692,-0.75632 0.7691,0 0.7691,0.32048 0.7691,1.53828 v 12.81896 c 0,1.10243 0,1.53828 -0.641,1.53828 -0.5127,0 -0.5127,-0.0513 -1.0255,-0.83323 l -2.1792,-3.62777 c -1.9228,1.84593 -4.4866,4.461 -10.2552,4.461 -7.0504,0 -12.4344,-5.62753 -12.4344,-12.39594 0,-5.28141 3.4612,-9.94751 8.3324,-11.67807 0.7691,-0.25638 3.9738,-1.0127 8.4605,-2.10231 1.6664,-0.46149 3.5893,-0.89733 5.3839,-3.25602 1.4101,-1.66647 2.0511,-3.76878 2.0511,-5.87109 0,-4.55073 -3.2048,-9.13992 -8.5887,-9.13992 -1.7947,0 -6.6659,0.32048 -10.127,3.4483 -3.5893,3.4483 -3.8457,7.52473 -3.8457,9.83215 -0.1282,0.64095 -0.6409,0.64095 -0.7691,0.64095 -0.8974,0 -0.8974,-0.46149 -0.8974,-1.60237 v -12.78051 c 0,-1.07679 0,-1.51264 0.7692,-1.51264 0.3845,0 0.5127,0.11537 0.8973,0.82042 0,0.0513 0.2564,0.25637 2.3074,3.64058 1.9229,-2.1664 6.0249,-4.461 11.7935,-4.461 7.435,0 12.5625,6.24284 12.5625,13.26763 0,6.39666 -4.2302,11.6268 -9.6142,12.9087 z"
           inkscape:connector-curvature="0"
           style="fill:#00c800;fill-opacity:1;stroke-width:0" /><path
           id="path1804"
           d="m 1234.7288,472.94705 v -1.98694 h 1.5382 c 4.8713,0 4.9994,-0.69222 4.9994,-2.99963 V 434.3107 c 0,-2.30742 -0.1281,-2.99964 -4.9994,-2.99964 h -1.5382 v -1.98694 h 23.3305 l -1.6665,1.98694 h -6.5377 c -2.9483,0 -3.0765,0.43584 -3.0765,2.53815 v 34.54711 c 0,2.12795 0.1282,2.56379 3.0765,2.56379 h 6.4095 c 3.9739,0 8.3324,-1.39726 11.6653,-5.948 2.692,-3.75595 3.3329,-9.25529 3.3329,-14.24187 0,-7.08888 -1.2819,-10.90893 -3.5893,-14.03676 -1.2819,-1.71774 -4.8712,-5.42242 -11.2807,-5.42242 l 1.6665,-1.98694 c 10.7679,0 19.613,9.44757 19.613,21.44612 0,12.13956 -8.7169,22.17681 -19.613,22.17681 z"
           inkscape:connector-curvature="0"
           style="fill:#00c800;fill-opacity:1;stroke-width:0" /><path
           id="path1806"
           d="m 1299.7209,445.28373 v 0.4743 0.49994 l -0.1282,0.49994 v 0.52558 1.07679 l -0.1282,1.12807 v 1.17934 l -0.2563,1.2178 -0.1282,1.24344 -0.2564,1.29472 -0.1282,1.30753 -0.3846,1.32036 -0.2563,1.34599 -0.5128,1.35881 -0.3846,1.37163 -0.5127,1.37163 -0.2564,0.6794 -0.2564,0.67941 -0.3846,0.6794 -0.2563,0.67941 c -3.8457,7.8452 -9.3579,11.99855 -9.9988,11.99855 -0.3846,0 -0.641,-0.24356 -0.641,-0.62813 0,-0.19229 0,-0.32048 1.1537,-1.47418 6.2813,-6.30693 9.9988,-16.47237 9.9988,-29.82973 0,-10.90894 -2.4356,-22.15117 -10.2552,-30.20148 -0.8973,-0.75632 -0.8973,-0.89733 -0.8973,-1.07679 0,-0.38457 0.2564,-0.64095 0.641,-0.64095 0.6409,0 6.4094,4.34563 10.1269,12.44721 3.333,7.01198 4.1021,14.10086 4.1021,19.47201 z"
           inkscape:connector-curvature="0"
           style="fill:#00c800;fill-opacity:1;stroke-width:0" /><path
           id="path1768-6"
           d="m 496.34216,452.69852 v 4.20462 l -9.1912,-0.69222 v -1.98694 c 4.55073,0 4.98658,-0.38457 4.98658,-3.1791 v -29.89383 c 0,-2.88426 -0.70505,-2.88426 -4.98658,-2.88426 v -1.97412 c 2.17922,0.0769 5.48652,0.19228 7.15298,0.19228 1.71774,0 4.98658,-0.11537 7.2299,-0.19227 v 1.97412 c -4.28154,0 -4.98658,0 -4.98658,2.88427 v 10.71665 0.58967 l 0.89733,0.83322 c -0.89733,1.34599 -0.89733,1.41009 -0.89733,2.66635 v 0 14.2675 c 1.84593,3.2432 4.98658,5.10195 8.22977,5.10195 4.66611,0 8.57589,-5.62752 8.57589,-12.8446 0,-7.72983 -4.48664,-13.08816 -9.21683,-13.08816 -2.53816,0 -4.96094,1.2819 -6.6915,3.89696 l -0.89733,-0.83323 c 0.32047,-1.02552 2.99964,-4.47382 7.84521,-4.47382 7.61446,0 14.24186,6.25566 14.24186,14.49825 0,8.1144 -6.19156,14.42133 -13.33172,14.42133 -4.98657,0 -7.67856,-2.79453 -8.96045,-4.20462 z"
           inkscape:connector-curvature="0"
           style="font-style:normal;font-variant:normal;font-weight:normal;font-stretch:normal;letter-spacing:normal;word-spacing:normal;text-anchor:start;fill:#00c800;fill-opacity:1;fill-rule:evenodd;stroke:#000000;stroke-width:0;stroke-linecap:butt;stroke-linejoin:miter;stroke-miterlimit:10.43299961;stroke-dasharray:none;stroke-dashoffset:0;stroke-opacity:1" /></g>    </g>
  </g>
</svg>
