<?xml version="1.0" encoding="utf-8" standalone="no"?>
<!DOCTYPE svg PUBLIC "-//W3C//DTD SVG 1.1//EN"
  "http://www.w3.org/Graphics/SVG/1.1/DTD/svg11.dtd">
<!-- Created with matplotlib (https://matplotlib.org/) -->
<svg height="246pt" version="1.1" viewBox="0 0 399 246" width="399pt" xmlns="http://www.w3.org/2000/svg" xmlns:xlink="http://www.w3.org/1999/xlink">
 <defs>
  <style type="text/css">
*{stroke-linecap:butt;stroke-linejoin:round;}
  </style>
 </defs>
 <g id="figure_1">
  <g id="patch_1">
   <path d="M 0 246 
L 399 246 
L 399 0 
L 0 0 
z
" style="fill:#ffffff;"/>
  </g>
  <g id="axes_1">
   <g id="patch_2">
    <path d="M 49.875 218.94 
L 359.1 218.94 
L 359.1 29.52 
L 49.875 29.52 
z
" style="fill:#ffffff;"/>
   </g>
   <g id="matplotlib.axis_1">
    <g id="xtick_1">
     <g id="line2d_1">
      <path clip-path="url(#p5eb9630044)" d="M 49.875 218.94 
L 49.875 29.52 
" style="fill:none;stroke:#cccccc;stroke-linecap:round;stroke-width:0.8;"/>
     </g>
     <g id="text_1">
      <!-- $-20$ -->
      <defs>
       <path d="M 65.90625 23 
C 67.59375 23 69.40625 23 69.40625 25 
C 69.40625 27 67.59375 27 65.90625 27 
L 11.796875 27 
C 10.09375 27 8.296875 27 8.296875 25 
C 8.296875 23 10.09375 23 11.796875 23 
z
" id="CMSY10-0"/>
       <path d="M 41.703125 15.453125 
L 39.90625 15.453125 
C 38.90625 8.375 38.09375 7.171875 37.703125 6.5625 
C 37.203125 5.765625 30 5.765625 28.59375 5.765625 
L 9.40625 5.765625 
C 13 9.671875 20 16.75 28.5 24.953125 
C 34.59375 30.734375 41.703125 37.53125 41.703125 47.421875 
C 41.703125 59.21875 32.296875 66 21.796875 66 
C 10.796875 66 4.09375 56.3125 4.09375 47.34375 
C 4.09375 43.4375 7 42.9375 8.203125 42.9375 
C 9.203125 42.9375 12.203125 43.546875 12.203125 47.03125 
C 12.203125 50.109375 9.59375 51 8.203125 51 
C 7.59375 51 7 50.90625 6.59375 50.703125 
C 8.5 59.21875 14.296875 63.40625 20.40625 63.40625 
C 29.09375 63.40625 34.796875 56.515625 34.796875 47.421875 
C 34.796875 38.734375 29.703125 31.25 24 24.75 
L 4.09375 2.28125 
L 4.09375 0 
L 39.296875 0 
z
" id="CMR17-50"/>
       <path d="M 42 31.640625 
C 42 37.75 41.90625 48.125 37.703125 56.109375 
C 34 63.109375 28.09375 65.59375 22.90625 65.59375 
C 18.09375 65.59375 12 63.40625 8.203125 56.203125 
C 4.203125 48.71875 3.796875 39.4375 3.796875 31.640625 
C 3.796875 25.953125 3.90625 17.28125 7 9.671875 
C 11.296875 -0.609375 19 -2 22.90625 -2 
C 27.5 -2 34.5 -0.109375 38.59375 9.375 
C 41.59375 16.28125 42 24.359375 42 31.640625 
z
M 22.90625 -0.40625 
C 16.5 -0.40625 12.703125 5.078125 11.296875 12.6875 
C 10.203125 18.5625 10.203125 27.15625 10.203125 32.75 
C 10.203125 40.4375 10.203125 46.828125 11.5 52.921875 
C 13.40625 61.390625 19 64 22.90625 64 
C 27 64 32.296875 61.296875 34.203125 53.125 
C 35.5 47.4375 35.59375 40.734375 35.59375 32.75 
C 35.59375 26.25 35.59375 18.265625 34.40625 12.375 
C 32.296875 1.484375 26.40625 -0.40625 22.90625 -0.40625 
z
" id="CMR17-48"/>
      </defs>
      <g style="fill:#262626;" transform="translate(38.497576 236.234028)scale(0.13 -0.13)">
       <use transform="scale(0.996264)" xlink:href="#CMSY10-0"/>
       <use transform="translate(77.487468 0)scale(0.996264)" xlink:href="#CMR17-50"/>
       <use transform="translate(123.177945 0)scale(0.996264)" xlink:href="#CMR17-48"/>
      </g>
     </g>
    </g>
    <g id="xtick_2">
     <g id="line2d_2">
      <path clip-path="url(#p5eb9630044)" d="M 127.18125 218.94 
L 127.18125 29.52 
" style="fill:none;stroke:#cccccc;stroke-linecap:round;stroke-width:0.8;"/>
     </g>
     <g id="text_2">
      <!-- $-10$ -->
      <defs>
       <path d="M 26.59375 63.40625 
C 26.59375 65.5 26.5 65.5 25.09375 65.5 
C 21.203125 61.1875 15.296875 59.796875 9.703125 59.796875 
C 9.40625 59.796875 8.90625 59.796875 8.796875 59.5 
C 8.703125 59.296875 8.703125 59.09375 8.703125 57 
C 11.796875 57 17 57.59375 21 59.984375 
L 21 7.203125 
C 21 3.6875 20.796875 2.5 12.203125 2.5 
L 9.203125 2.5 
L 9.203125 0 
C 14 0 19 0 23.796875 0 
C 28.59375 0 33.59375 0 38.40625 0 
L 38.40625 2.5 
L 35.40625 2.5 
C 26.796875 2.5 26.59375 3.59375 26.59375 7.15625 
z
" id="CMR17-49"/>
      </defs>
      <g style="fill:#262626;" transform="translate(115.803826 236.234028)scale(0.13 -0.13)">
       <use transform="scale(0.996264)" xlink:href="#CMSY10-0"/>
       <use transform="translate(77.487468 0)scale(0.996264)" xlink:href="#CMR17-49"/>
       <use transform="translate(123.177945 0)scale(0.996264)" xlink:href="#CMR17-48"/>
      </g>
     </g>
    </g>
    <g id="xtick_3">
     <g id="line2d_3">
      <path clip-path="url(#p5eb9630044)" d="M 204.4875 218.94 
L 204.4875 29.52 
" style="fill:none;stroke:#cccccc;stroke-linecap:round;stroke-width:0.8;"/>
     </g>
     <g id="text_3">
      <!-- $0$ -->
      <g style="fill:#262626;" transform="translate(201.31713 236.234028)scale(0.13 -0.13)">
       <use transform="scale(0.996264)" xlink:href="#CMR17-48"/>
      </g>
     </g>
    </g>
    <g id="xtick_4">
     <g id="line2d_4">
      <path clip-path="url(#p5eb9630044)" d="M 281.79375 218.94 
L 281.79375 29.52 
" style="fill:none;stroke:#cccccc;stroke-linecap:round;stroke-width:0.8;"/>
     </g>
     <g id="text_4">
      <!-- $10$ -->
      <g style="fill:#262626;" transform="translate(275.453011 236.234028)scale(0.13 -0.13)">
       <use transform="scale(0.996264)" xlink:href="#CMR17-49"/>
       <use transform="translate(45.690477 0)scale(0.996264)" xlink:href="#CMR17-48"/>
      </g>
     </g>
    </g>
    <g id="xtick_5">
     <g id="line2d_5">
      <path clip-path="url(#p5eb9630044)" d="M 359.1 218.94 
L 359.1 29.52 
" style="fill:none;stroke:#cccccc;stroke-linecap:round;stroke-width:0.8;"/>
     </g>
     <g id="text_5">
      <!-- $20$ -->
      <g style="fill:#262626;" transform="translate(352.759261 236.234028)scale(0.13 -0.13)">
       <use transform="scale(0.996264)" xlink:href="#CMR17-50"/>
       <use transform="translate(45.690477 0)scale(0.996264)" xlink:href="#CMR17-48"/>
      </g>
     </g>
    </g>
   </g>
   <g id="matplotlib.axis_2">
    <g id="ytick_1">
     <g id="line2d_6">
      <path clip-path="url(#p5eb9630044)" d="M 49.875 218.94 
L 359.1 218.94 
" style="fill:none;stroke:#cccccc;stroke-linecap:round;stroke-width:0.8;"/>
     </g>
     <g id="text_6">
      <!-- $10^{-14}$ -->
      <defs>
       <path d="M 33.59375 64.40625 
C 33.59375 66.5 33.5 66.5 31.703125 66.5 
L 2 19.59375 
L 2 17 
L 27.796875 17 
L 27.796875 7.140625 
C 27.796875 3.5 27.59375 2.5 20.59375 2.5 
L 18.703125 2.5 
L 18.703125 0 
C 21.90625 0 27.296875 0 30.703125 0 
C 34.09375 0 39.5 0 42.703125 0 
L 42.703125 2.5 
L 40.796875 2.5 
C 33.796875 2.5 33.59375 3.5 33.59375 7.140625 
L 33.59375 17 
L 43.796875 17 
L 43.796875 19.59375 
L 33.59375 19.59375 
z
M 28.09375 57.859375 
L 28.09375 19.59375 
L 4 19.59375 
z
" id="CMR17-52"/>
      </defs>
      <g style="fill:#262626;" transform="translate(8.345637 224.128862)scale(0.15 -0.15)">
       <use transform="scale(0.996264)" xlink:href="#CMR17-49"/>
       <use transform="translate(45.690477 0)scale(0.996264)" xlink:href="#CMR17-48"/>
       <use transform="translate(91.380954 36.153639)scale(0.697382)" xlink:href="#CMSY10-0"/>
       <use transform="translate(145.621947 36.153639)scale(0.697382)" xlink:href="#CMR17-49"/>
       <use transform="translate(177.605129 36.153639)scale(0.697382)" xlink:href="#CMR17-52"/>
      </g>
     </g>
    </g>
    <g id="ytick_2">
     <g id="line2d_7">
      <path clip-path="url(#p5eb9630044)" d="M 49.875 178.35 
L 359.1 178.35 
" style="fill:none;stroke:#cccccc;stroke-linecap:round;stroke-width:0.8;"/>
     </g>
     <g id="text_7">
      <!-- $10^{-11}$ -->
      <g style="fill:#262626;" transform="translate(8.345637 183.538862)scale(0.15 -0.15)">
       <use transform="scale(0.996264)" xlink:href="#CMR17-49"/>
       <use transform="translate(45.690477 0)scale(0.996264)" xlink:href="#CMR17-48"/>
       <use transform="translate(91.380954 36.153639)scale(0.697382)" xlink:href="#CMSY10-0"/>
       <use transform="translate(145.621947 36.153639)scale(0.697382)" xlink:href="#CMR17-49"/>
       <use transform="translate(177.605129 36.153639)scale(0.697382)" xlink:href="#CMR17-49"/>
      </g>
     </g>
    </g>
    <g id="ytick_3">
     <g id="line2d_8">
      <path clip-path="url(#p5eb9630044)" d="M 49.875 137.76 
L 359.1 137.76 
" style="fill:none;stroke:#cccccc;stroke-linecap:round;stroke-width:0.8;"/>
     </g>
     <g id="text_8">
      <!-- $10^{-8}$ -->
      <defs>
       <path d="M 27.203125 35.375 
C 33.5 38.546875 39.90625 43.328125 39.90625 50.984375 
C 39.90625 60.015625 31.09375 65.296875 23 65.296875 
C 13.90625 65.296875 5.90625 58.734375 5.90625 49.6875 
C 5.90625 47.203125 6.5 42.921875 10.40625 39.140625 
C 11.40625 38.15625 15.59375 35.171875 18.296875 33.28125 
C 13.796875 30.984375 3.296875 25.53125 3.296875 14.59375 
C 3.296875 4.359375 13.09375 -2 22.796875 -2 
C 33.5 -2 42.5 5.65625 42.5 15.78125 
C 42.5 24.84375 36.40625 29.015625 32.40625 31.703125 
z
M 14.09375 44.09375 
C 13.296875 44.59375 9.296875 47.671875 9.296875 52.359375 
C 9.296875 58.421875 15.59375 63 22.796875 63 
C 30.703125 63 36.5 57.4375 36.5 50.96875 
C 36.5 41.703125 26.09375 36.421875 25.59375 36.421875 
C 25.5 36.421875 25.40625 36.421875 24.59375 37.03125 
z
M 32.5 23.734375 
C 34 22.640625 38.796875 19.375 38.796875 13.296875 
C 38.796875 5.953125 31.40625 0.390625 23 0.390625 
C 13.90625 0.390625 7 6.84375 7 14.6875 
C 7 22.546875 13.09375 29.09375 20 32.1875 
z
" id="CMR17-56"/>
      </defs>
      <g style="fill:#262626;" transform="translate(13.576008 142.948862)scale(0.15 -0.15)">
       <use transform="scale(0.996264)" xlink:href="#CMR17-49"/>
       <use transform="translate(45.690477 0)scale(0.996264)" xlink:href="#CMR17-48"/>
       <use transform="translate(91.380954 36.153639)scale(0.697382)" xlink:href="#CMSY10-0"/>
       <use transform="translate(145.621947 36.153639)scale(0.697382)" xlink:href="#CMR17-56"/>
      </g>
     </g>
    </g>
    <g id="ytick_4">
     <g id="line2d_9">
      <path clip-path="url(#p5eb9630044)" d="M 49.875 97.17 
L 359.1 97.17 
" style="fill:none;stroke:#cccccc;stroke-linecap:round;stroke-width:0.8;"/>
     </g>
     <g id="text_9">
      <!-- $10^{-5}$ -->
      <defs>
       <path d="M 11.40625 57.6875 
C 12.40625 57.28125 16.5 56 20.703125 56 
C 30 56 35.09375 61.109375 38 64.0625 
C 38 64.953125 38 65.5 37.40625 65.5 
C 37.296875 65.5 37.09375 65.5 36.296875 65.046875 
C 32.796875 63.40625 28.703125 62.078125 23.703125 62.078125 
C 20.703125 62.078125 16.203125 62.484375 11.296875 64.671875 
C 10.203125 65.171875 10 65.171875 9.90625 65.171875 
C 9.40625 65.171875 9.296875 65.0625 9.296875 63.078125 
L 9.296875 34.421875 
C 9.296875 32.640625 9.296875 32.140625 10.296875 32.140625 
C 10.796875 32.140625 11 32.34375 11.5 33.03125 
C 14.703125 37.515625 19.09375 39.40625 24.09375 39.40625 
C 27.59375 39.40625 35.09375 37.21875 35.09375 20.140625 
C 35.09375 16.953125 35.09375 11.171875 32.09375 6.578125 
C 29.59375 2.484375 25.703125 0.390625 21.40625 0.390625 
C 14.796875 0.390625 8.09375 5 6.296875 12.71875 
C 6.703125 12.609375 7.5 12.421875 7.90625 12.421875 
C 9.203125 12.421875 11.703125 13.125 11.703125 16.21875 
C 11.703125 18.90625 9.796875 20 7.90625 20 
C 5.59375 20 4.09375 18.59375 4.09375 15.796875 
C 4.09375 7.09375 11 -2 21.59375 -2 
C 31.90625 -2 41.703125 6.875 41.703125 19.75 
C 41.703125 31.71875 33.90625 41 24.203125 41 
C 19.09375 41 14.796875 39.109375 11.40625 35.53125 
z
" id="CMR17-53"/>
      </defs>
      <g style="fill:#262626;" transform="translate(13.576008 102.358862)scale(0.15 -0.15)">
       <use transform="scale(0.996264)" xlink:href="#CMR17-49"/>
       <use transform="translate(45.690477 0)scale(0.996264)" xlink:href="#CMR17-48"/>
       <use transform="translate(91.380954 36.153639)scale(0.697382)" xlink:href="#CMSY10-0"/>
       <use transform="translate(145.621947 36.153639)scale(0.697382)" xlink:href="#CMR17-53"/>
      </g>
     </g>
    </g>
    <g id="ytick_5">
     <g id="line2d_10">
      <path clip-path="url(#p5eb9630044)" d="M 49.875 56.58 
L 359.1 56.58 
" style="fill:none;stroke:#cccccc;stroke-linecap:round;stroke-width:0.8;"/>
     </g>
     <g id="text_10">
      <!-- $10^{-2}$ -->
      <g style="fill:#262626;" transform="translate(13.576008 61.768862)scale(0.15 -0.15)">
       <use transform="scale(0.996264)" xlink:href="#CMR17-49"/>
       <use transform="translate(45.690477 0)scale(0.996264)" xlink:href="#CMR17-48"/>
       <use transform="translate(91.380954 36.153639)scale(0.697382)" xlink:href="#CMSY10-0"/>
       <use transform="translate(145.621947 36.153639)scale(0.697382)" xlink:href="#CMR17-50"/>
      </g>
     </g>
    </g>
   </g>
   <g id="line2d_11">
    <path clip-path="url(#p5eb9630044)" d="M 49.875 65.397026 
L 73.160108 63.958328 
L 92.944719 62.519132 
L 109.754527 61.079398 
L 124.041007 59.638574 
L 127.176612 59.288151 
L 127.182796 60.805023 
L 127.287935 60.79408 
L 139.768505 59.38262 
L 150.344212 57.968405 
L 159.25007 56.559574 
L 166.789126 55.147785 
L 173.153104 53.735652 
L 178.521357 52.322805 
L 183.054687 50.905927 
L 186.882969 49.482558 
L 190.117527 48.048751 
L 192.857315 46.596293 
L 195.176549 45.119802 
L 197.143259 43.608173 
L 198.813108 42.04765 
L 200.235571 40.415954 
L 201.447757 38.688079 
L 202.486774 36.819903 
L 203.408283 34.699351 
L 204.496777 32.176296 
L 204.639023 32.300555 
L 204.929701 32.959977 
L 206.49441 36.832445 
L 207.558166 38.737318 
L 208.776537 40.463185 
L 210.186631 42.073198 
L 211.825556 43.602932 
L 213.73042 45.07206 
L 215.9507 46.498655 
L 218.542057 47.894304 
L 221.572523 49.268706 
L 225.122497 50.629089 
L 229.284749 51.980208 
L 234.164417 53.324642 
L 239.891378 54.665882 
L 246.601695 56.003406 
L 254.474721 57.340296 
L 263.70218 58.676309 
L 274.543825 60.015113 
L 281.792204 60.805023 
L 281.798388 59.288151 
L 281.903527 59.30013 
L 294.897421 60.667713 
L 310.062119 62.034448 
L 327.756327 63.400174 
L 348.406786 64.765332 
L 359.1 65.397026 
L 359.1 65.397026 
" style="fill:none;stroke:#4c72b0;stroke-linecap:round;stroke-width:2;"/>
   </g>
   <g id="line2d_12">
    <path clip-path="url(#p5eb9630044)" d="M 49.875 71.452309 
L 70.197673 69.796197 
L 87.860959 68.138888 
L 103.211195 66.480393 
L 116.551428 64.820511 
L 130.930678 62.786703 
L 140.819891 61.111373 
L 149.447441 59.428889 
L 156.980313 57.738042 
L 163.566937 56.036533 
L 169.34956 54.317797 
L 174.44569 52.575366 
L 178.954281 50.80299 
L 182.980471 48.984967 
L 186.623214 47.098708 
L 189.993834 45.103976 
L 193.271685 42.903855 
L 197.316429 39.894454 
L 200.408741 37.689513 
L 201.979635 36.834403 
L 203.222744 36.401648 
L 204.323607 36.249078 
L 205.387363 36.32552 
L 206.50678 36.634263 
L 207.780812 37.226382 
L 209.407368 38.244586 
L 212.159526 40.274832 
L 216.884578 43.726735 
L 220.205721 45.858978 
L 223.619633 47.784525 
L 227.299484 49.602037 
L 231.350413 51.351759 
L 235.865188 53.056191 
L 240.93658 54.729154 
L 246.663541 56.379809 
L 253.145027 58.012098 
L 260.510914 59.633051 
L 268.87871 61.242287 
L 278.409215 62.84423 
L 286.263687 63.967033 
L 298.094872 65.555001 
L 311.620644 67.14109 
L 327.082203 68.725395 
L 344.764042 70.308766 
L 359.1 71.452309 
L 359.1 71.452309 
" style="fill:none;stroke:#dd8452;stroke-linecap:round;stroke-width:2;"/>
   </g>
   <g id="line2d_13">
    <path clip-path="url(#p5eb9630044)" d="M 49.875 80.617448 
L 68.156748 78.768885 
L 84.286246 76.919171 
L 98.52325 75.067264 
L 111.084221 73.213748 
L 122.173251 71.357191 
L 127.176612 70.435989 
L 127.294119 69.811361 
L 135.835085 67.974174 
L 143.739034 66.033475 
L 150.517381 64.128581 
L 156.448435 62.224183 
L 161.736289 60.284598 
L 166.31291 58.370791 
L 170.413316 56.421251 
L 174.291075 54.329997 
L 177.940003 52.107588 
L 181.650777 49.583565 
L 186.184106 46.209533 
L 192.653223 41.399621 
L 195.380642 39.667858 
L 197.644214 38.486258 
L 199.666586 37.676133 
L 201.540527 37.160793 
L 203.334068 36.89589 
L 205.090501 36.860837 
L 206.846934 37.048867 
L 208.646659 37.467185 
L 210.539154 38.139443 
L 212.58008 39.105595 
L 214.88076 40.448648 
L 217.67621 42.352087 
L 222.03637 45.631534 
L 227.973608 50.043651 
L 231.789521 52.588351 
L 235.475557 54.778366 
L 239.328578 56.805273 
L 243.453722 58.719583 
L 248.030343 60.592216 
L 252.965673 62.374672 
L 258.476173 64.134174 
L 264.623688 65.870696 
L 271.364928 67.559427 
L 279.380201 69.340052 
L 281.792204 69.833815 
L 281.909712 70.457127 
L 291.916433 72.242735 
L 303.197186 74.025468 
L 315.912773 75.805473 
L 330.24873 77.583419 
L 346.415337 79.359935 
L 359.1 80.617448 
L 359.1 80.617448 
" style="fill:none;stroke:#55a868;stroke-linecap:round;stroke-width:2;"/>
   </g>
   <g id="line2d_14">
    <path clip-path="url(#p5eb9630044)" d="M 138.806655 247 
L 142.644355 222.940544 
L 146.373683 200.947824 
L 149.991688 180.918441 
L 153.504555 162.702588 
L 156.906098 146.220253 
L 160.196317 131.359742 
L 163.375214 118.013014 
L 166.442787 106.075685 
L 169.399037 95.447025 
L 172.250149 86.010356 
L 174.989937 77.695194 
L 177.624587 70.395235 
L 180.147913 64.043571 
L 182.566101 58.544012 
L 184.885335 53.809644 
L 187.09943 49.783342 
L 189.214572 46.387154 
L 191.230759 43.559342 
L 193.160362 41.227275 
L 194.997195 39.347438 
L 196.753628 37.860157 
L 198.435846 36.720096 
L 200.056217 35.88503 
L 201.627112 35.321915 
L 203.160898 35.006204 
L 204.669946 34.921323 
L 206.17281 35.059318 
L 207.688043 35.423269 
L 209.228014 36.024462 
L 210.805093 36.88181 
L 212.437834 38.027061 
L 214.132421 39.492887 
L 215.895038 41.317135 
L 217.738056 43.551283 
L 219.667659 46.248268 
L 221.683846 49.457372 
L 223.792803 53.241824 
L 225.994529 57.659335 
L 228.295209 62.784626 
L 230.694843 68.684852 
L 233.193431 75.430053 
L 235.797157 83.112195 
L 238.499838 91.791342 
L 241.307657 101.568769 
L 244.220615 112.531553 
L 247.238711 124.770031 
L 250.361946 138.377803 
L 253.596504 153.481589 
L 256.936201 170.155705 
L 260.381037 188.503724 
L 263.937195 208.668627 
L 267.598492 230.728808 
L 270.168345 247 
L 270.168345 247 
" style="fill:none;stroke:#c44e52;stroke-linecap:round;stroke-width:2;"/>
   </g>
   <g id="patch_3">
    <path d="M 49.875 218.94 
L 49.875 29.52 
" style="fill:none;stroke:#cccccc;stroke-linecap:square;stroke-linejoin:miter;"/>
   </g>
   <g id="patch_4">
    <path d="M 359.1 218.94 
L 359.1 29.52 
" style="fill:none;stroke:#cccccc;stroke-linecap:square;stroke-linejoin:miter;"/>
   </g>
   <g id="patch_5">
    <path d="M 49.875 218.94 
L 359.1 218.94 
" style="fill:none;stroke:#cccccc;stroke-linecap:square;stroke-linejoin:miter;"/>
   </g>
   <g id="patch_6">
    <path d="M 49.875 29.52 
L 359.1 29.52 
" style="fill:none;stroke:#cccccc;stroke-linecap:square;stroke-linejoin:miter;"/>
   </g>
   <g id="legend_1">
    <g id="patch_7">
     <path d="M 245.732331 210.94 
L 347.9 210.94 
Q 351.1 210.94 351.1 207.74 
L 351.1 120.142095 
Q 351.1 116.942095 347.9 116.942095 
L 245.732331 116.942095 
Q 242.532331 116.942095 242.532331 120.142095 
L 242.532331 207.74 
Q 242.532331 210.94 245.732331 210.94 
z
" style="fill:#ffffff;opacity:0.8;stroke:#cccccc;stroke-linejoin:miter;stroke-width:0.8;"/>
    </g>
    <g id="line2d_15">
     <path d="M 248.932331 128.942095 
L 280.932331 128.942095 
" style="fill:none;stroke:#4c72b0;stroke-linecap:round;stroke-width:2;"/>
    </g>
    <g id="line2d_16"/>
    <g id="text_11">
     <!-- $\alpha=0.5$ -->
     <defs>
      <path d="M 46.296875 25.25 
C 46.296875 34.921875 40.796875 43.984375 30.203125 43.984375 
C 17.09375 43.984375 4 29.71875 4 15.5625 
C 4 6.890625 9.40625 -1 19.59375 -1 
C 25.796875 -1 33.203125 1.390625 40.296875 7.375 
C 41.703125 1.796875 44.796875 -1 49.09375 -1 
C 54.5 -1 57.203125 4.59375 57.203125 5.890625 
C 57.203125 6.78125 56.5 6.78125 56.203125 6.78125 
C 55.40625 6.78125 55.296875 6.484375 55 5.6875 
C 54.09375 3.1875 51.796875 1 49.40625 1 
C 46.296875 1 46.296875 7.375 46.296875 13.46875 
C 56.5 25.640625 58.90625 38.21875 58.90625 38.3125 
C 58.90625 39.21875 58.09375 39.21875 57.796875 39.21875 
C 56.90625 39.21875 56.796875 38.921875 56.40625 37.125 
C 55.09375 32.734375 52.5 24.953125 46.296875 16.765625 
z
M 40 9.78125 
C 31.203125 1.890625 23.296875 1 19.796875 1 
C 12.703125 1 10.703125 7.28125 10.703125 11.96875 
C 10.703125 16.25 12.90625 26.4375 16 31.9375 
C 20.09375 38.921875 25.703125 42 30.203125 42 
C 39.90625 42 39.90625 29.328125 39.90625 20.953125 
C 39.90625 18.46875 39.796875 15.875 39.796875 13.375 
C 39.796875 11.375 39.90625 10.875 40 9.78125 
z
" id="CMMI12-11"/>
      <path d="M 64.296875 31.515625 
C 65.796875 31.515625 67.296875 31.515625 67.296875 33.203125 
C 67.296875 35 65.59375 35 63.90625 35 
L 8 35 
C 6.296875 35 4.59375 35 4.59375 33.203125 
C 4.59375 31.515625 6.09375 31.515625 7.59375 31.515625 
z
M 63.90625 14 
C 65.59375 14 67.296875 14 67.296875 15.796875 
C 67.296875 17.484375 65.796875 17.484375 64.296875 17.484375 
L 7.59375 17.484375 
C 6.09375 17.484375 4.59375 17.484375 4.59375 15.796875 
C 4.59375 14 6.296875 14 8 14 
z
" id="CMR17-61"/>
      <path d="M 18.40625 4.796875 
C 18.40625 7.6875 16 9.671875 13.59375 9.671875 
C 10.703125 9.671875 8.703125 7.28125 8.703125 4.890625 
C 8.703125 2 11.09375 0 13.5 0 
C 16.40625 0 18.40625 2.390625 18.40625 4.796875 
z
" id="CMMI12-58"/>
     </defs>
     <g style="fill:#262626;" transform="translate(293.732331 134.542095)scale(0.16 -0.16)">
      <use transform="scale(0.996264)" xlink:href="#CMMI12-11"/>
      <use transform="translate(90.355032 0)scale(0.996264)" xlink:href="#CMR17-61"/>
      <use transform="translate(189.743829 0)scale(0.996264)" xlink:href="#CMR17-48"/>
      <use transform="translate(235.434306 0)scale(0.996264)" xlink:href="#CMMI12-58"/>
      <use transform="translate(262.531483 0)scale(0.996264)" xlink:href="#CMR17-53"/>
     </g>
    </g>
    <g id="line2d_17">
     <path d="M 248.932331 151.241571 
L 280.932331 151.241571 
" style="fill:none;stroke:#dd8452;stroke-linecap:round;stroke-width:2;"/>
    </g>
    <g id="line2d_18"/>
    <g id="text_12">
     <!-- $\alpha=1.0$ -->
     <g style="fill:#262626;" transform="translate(293.732331 156.841571)scale(0.16 -0.16)">
      <use transform="scale(0.996264)" xlink:href="#CMMI12-11"/>
      <use transform="translate(90.355032 0)scale(0.996264)" xlink:href="#CMR17-61"/>
      <use transform="translate(189.743829 0)scale(0.996264)" xlink:href="#CMR17-49"/>
      <use transform="translate(235.434306 0)scale(0.996264)" xlink:href="#CMMI12-58"/>
      <use transform="translate(262.531483 0)scale(0.996264)" xlink:href="#CMR17-48"/>
     </g>
    </g>
    <g id="line2d_19">
     <path d="M 248.932331 173.541048 
L 280.932331 173.541048 
" style="fill:none;stroke:#55a868;stroke-linecap:round;stroke-width:2;"/>
    </g>
    <g id="line2d_20"/>
    <g id="text_13">
     <!-- $\alpha=1.5$ -->
     <g style="fill:#262626;" transform="translate(293.732331 179.141048)scale(0.16 -0.16)">
      <use transform="scale(0.996264)" xlink:href="#CMMI12-11"/>
      <use transform="translate(90.355032 0)scale(0.996264)" xlink:href="#CMR17-61"/>
      <use transform="translate(189.743829 0)scale(0.996264)" xlink:href="#CMR17-49"/>
      <use transform="translate(235.434306 0)scale(0.996264)" xlink:href="#CMMI12-58"/>
      <use transform="translate(262.531483 0)scale(0.996264)" xlink:href="#CMR17-53"/>
     </g>
    </g>
    <g id="line2d_21">
     <path d="M 248.932331 195.840524 
L 280.932331 195.840524 
" style="fill:none;stroke:#c44e52;stroke-linecap:round;stroke-width:2;"/>
    </g>
    <g id="line2d_22"/>
    <g id="text_14">
     <!-- $\alpha=2$ -->
     <g style="fill:#262626;" transform="translate(293.732331 201.440524)scale(0.16 -0.16)">
      <use transform="scale(0.996264)" xlink:href="#CMMI12-11"/>
      <use transform="translate(90.355032 0)scale(0.996264)" xlink:href="#CMR17-61"/>
      <use transform="translate(189.743829 0)scale(0.996264)" xlink:href="#CMR17-50"/>
     </g>
    </g>
   </g>
  </g>
 </g>
 <defs>
  <clipPath id="p5eb9630044">
   <rect height="189.42" width="309.225" x="49.875" y="29.52"/>
  </clipPath>
 </defs>
</svg>
